<?xml version="1.0" encoding="UTF-8" standalone="no"?>
<!-- Created with Inkscape (http://www.inkscape.org/) -->

<svg
   xmlns:dc="http://purl.org/dc/elements/1.1/"
   xmlns:cc="http://creativecommons.org/ns#"
   xmlns:rdf="http://www.w3.org/1999/02/22-rdf-syntax-ns#"
   xmlns:svg="http://www.w3.org/2000/svg"
   xmlns="http://www.w3.org/2000/svg"
   xmlns:sodipodi="http://sodipodi.sourceforge.net/DTD/sodipodi-0.dtd"
   xmlns:inkscape="http://www.inkscape.org/namespaces/inkscape"
   width="150.22649"
   height="379.99997"
   viewBox="0 0 39.747425 100.54166"
   version="1.1"
   id="svg11003"
   inkscape:version="0.92.2 (5c3e80d, 2017-08-06)"
   sodipodi:docname="PGPanner.svg">
  <defs
     id="defs10997" />
  <sodipodi:namedview
     id="base"
     pagecolor="#ffffff"
     bordercolor="#666666"
     borderopacity="1.0"
     inkscape:pageopacity="0.0"
     inkscape:pageshadow="2"
     inkscape:zoom="1.979899"
     inkscape:cx="-22.003181"
     inkscape:cy="181.36953"
     inkscape:document-units="mm"
     inkscape:current-layer="layer1"
     showgrid="false"
     fit-margin-top="0"
     fit-margin-left="0"
     fit-margin-right="0"
     fit-margin-bottom="0"
     inkscape:window-width="1920"
     inkscape:window-height="1017"
     inkscape:window-x="-8"
     inkscape:window-y="-8"
     inkscape:window-maximized="1"
     units="px" />
  <metadata
     id="metadata11000">
    <rdf:RDF>
      <cc:Work
         rdf:about="">
        <dc:format>image/svg+xml</dc:format>
        <dc:type
           rdf:resource="http://purl.org/dc/dcmitype/StillImage" />
        <dc:title></dc:title>
      </cc:Work>
    </rdf:RDF>
  </metadata>
  <g
     inkscape:label="Layer 1"
     inkscape:groupmode="layer"
     id="layer1"
     transform="translate(-64.792954,-75.127975)">
    <path
       inkscape:connector-curvature="0"
       id="path33429"
       d="M 64.866273,75.201293 H 104.46706 V 175.59739 H 64.866273 Z m 0,0"
       style="fill:#e6e6e6;fill-opacity:1;fill-rule:nonzero;stroke:none;stroke-width:0.27602378" />
    <path
       inkscape:connector-curvature="0"
       id="path33533"
       d="m 82.512388,172.42852 c -0.09165,0 -0.174673,-0.0517 -0.215646,-0.1337 l -0.783863,-1.56881 c -0.06038,-0.1186 -0.01188,-0.26416 0.107821,-0.32346 0.118605,-0.0593 0.264165,-0.0108 0.323466,0.10782 l 0.568222,1.13752 0.568222,-1.13752 c 0.06038,-0.11861 0.204859,-0.16712 0.324543,-0.10782 0.118605,0.0593 0.167124,0.20486 0.10782,0.32346 l -0.784942,1.56881 c -0.03989,0.0819 -0.123997,0.1337 -0.215643,0.1337"
       style="fill:#000000;fill-opacity:1;fill-rule:nonzero;stroke:none;stroke-width:0.27602378" />
    <path
       inkscape:connector-curvature="0"
       id="path33535"
       d="m 86.820948,172.42852 c -0.09165,0 -0.17575,-0.0517 -0.216723,-0.1337 l -0.783865,-1.56881 c -0.0593,-0.1186 -0.01079,-0.26416 0.10782,-0.32346 0.118605,-0.0593 0.264165,-0.0108 0.323469,0.10782 l 0.569299,1.13752 0.568219,-1.13752 c 0.0593,-0.11861 0.203782,-0.16712 0.323466,-0.10782 0.119682,0.0593 0.167124,0.20486 0.107821,0.32346 l -0.783863,1.56881 c -0.04097,0.0819 -0.125074,0.1337 -0.215643,0.1337"
       style="fill:#000000;fill-opacity:1;fill-rule:nonzero;stroke:none;stroke-width:0.27602378" />
    <path
       inkscape:connector-curvature="0"
       id="path33537"
       d="m 84.783116,172.42852 c -0.564988,0 -1.025387,-0.4604 -1.025387,-1.02539 0,-0.56606 0.460399,-1.02646 1.025387,-1.02646 0.224269,0 0.437753,0.0712 0.615659,0.20594 0.106744,0.0798 0.12831,0.23074 0.04852,0.33748 -0.07979,0.10675 -0.231817,0.12831 -0.337481,0.0485 -0.09489,-0.0712 -0.207018,-0.1089 -0.3267,-0.1089 -0.298669,0 -0.542345,0.24368 -0.542345,0.54343 0,0.29866 0.243676,0.54234 0.542345,0.54234 0.119682,0 0.231815,-0.0377 0.3267,-0.10782 0.105664,-0.0809 0.257691,-0.0593 0.337481,0.0474 0.07979,0.10674 0.05822,0.25769 -0.04852,0.33856 -0.177906,0.1337 -0.39139,0.20486 -0.615659,0.20486"
       style="fill:#000000;fill-opacity:1;fill-rule:nonzero;stroke:none;stroke-width:0.27602378" />
    <path
       inkscape:connector-curvature="0"
       id="path33539"
       d="m 85.113049,171.39019 c 0,0.1736 -0.140166,0.31377 -0.313761,0.31377 -0.173594,0 -0.313762,-0.14017 -0.313762,-0.31377 0,-0.17251 0.140168,-0.31376 0.313762,-0.31376 0.173595,0 0.313761,0.14125 0.313761,0.31376"
       style="fill:#000000;fill-opacity:1;fill-rule:nonzero;stroke:none;stroke-width:0.27602378" />
  </g>
</svg>
