<?xml version="1.0" encoding="UTF-8" standalone="no"?>
<!-- Created with Inkscape (http://www.inkscape.org/) -->

<svg
   xmlns:dc="http://purl.org/dc/elements/1.1/"
   xmlns:cc="http://creativecommons.org/ns#"
   xmlns:rdf="http://www.w3.org/1999/02/22-rdf-syntax-ns#"
   xmlns:svg="http://www.w3.org/2000/svg"
   xmlns="http://www.w3.org/2000/svg"
   xmlns:sodipodi="http://sodipodi.sourceforge.net/DTD/sodipodi-0.dtd"
   xmlns:inkscape="http://www.inkscape.org/namespaces/inkscape"
   width="660.49908"
   height="380"
   viewBox="0 0 174.75705 100.54166"
   version="1.1"
   id="svg12553"
   inkscape:version="0.92.3 (2405546, 2018-03-11)"
   sodipodi:docname="PGSEQ3.svg">
  <defs
     id="defs12547" />
  <sodipodi:namedview
     id="base"
     pagecolor="#ffffff"
     bordercolor="#666666"
     borderopacity="1.0"
     inkscape:pageopacity="0.0"
     inkscape:pageshadow="2"
     inkscape:zoom="2"
     inkscape:cx="323.46357"
     inkscape:cy="189.59439"
     inkscape:document-units="mm"
     inkscape:current-layer="text4072"
     showgrid="true"
     fit-margin-top="0"
     fit-margin-left="0"
     fit-margin-right="0"
     fit-margin-bottom="0"
     units="px"
     inkscape:window-width="1920"
     inkscape:window-height="1017"
     inkscape:window-x="-8"
     inkscape:window-y="-8"
     inkscape:window-maximized="1">
    <inkscape:grid
       type="xygrid"
       id="grid12870"
       originx="-20.372917"
       originy="84.666661" />
  </sodipodi:namedview>
  <metadata
     id="metadata12550">
    <rdf:RDF>
      <cc:Work
         rdf:about="">
        <dc:format>image/svg+xml</dc:format>
        <dc:type
           rdf:resource="http://purl.org/dc/dcmitype/StillImage" />
        <dc:title />
      </cc:Work>
    </rdf:RDF>
  </metadata>
  <g
     inkscape:label="Layer 1"
     inkscape:groupmode="layer"
     id="layer1"
     transform="translate(-26.543497,-161.30655)">
    <path
       inkscape:connector-curvature="0"
       id="path33453"
       d="M 26.616839,161.37987 H 201.96225 v 100.3961 H 26.616839 Z m 0,0"
       style="fill:#e6e6e6;fill-opacity:1;fill-rule:nonzero;stroke:none;stroke-width:0.39119366"
       sodipodi:insensitive="true" />
    <path
       inkscape:connector-curvature="0"
       id="path35727"
       d="m 34.74558,237.2034 v 8.5438"
       style="fill:none;stroke:#000000;stroke-width:0.18383184;stroke-linecap:round;stroke-linejoin:round;stroke-miterlimit:10;stroke-opacity:1" />
    <path
       inkscape:connector-curvature="0"
       id="path33787"
       d="m 38.533355,242.56724 c 0,-0.35581 -0.291121,-0.64693 -0.646932,-0.64693 h -6.281685 c -0.355838,0 -0.646933,0.29112 -0.646933,0.64693 v 6.28278 c 0,0.35581 0.291095,0.64693 0.646933,0.64693 h 6.281685 c 0.355811,0 0.646932,-0.29112 0.646932,-0.64693 z m 0,0"
       style="fill:#ff0000;fill-opacity:1;fill-rule:nonzero;stroke:none;stroke-width:0.27602378" />
    <path
       inkscape:connector-curvature="0"
       id="path35483"
       d="M 31.535655,196.58908 H 196.67058"
       style="fill:none;stroke:#000000;stroke-width:0.26841125;stroke-linecap:round;stroke-linejoin:round;stroke-miterlimit:10;stroke-opacity:1" />
    <path
       style="fill:#000000;fill-opacity:1;stroke:none;stroke-width:0.27602378"
       d="m 108.81105,253.66171 c 0.18544,0 0.33641,-0.0647 0.44423,-0.13801 0.0517,-0.0302 0.0776,-0.0776 0.0776,-0.13801 v -0.3364 c 0,-0.0604 -0.0474,-0.11214 -0.11213,-0.11214 h -0.34935 c -0.0517,0 -0.0992,0.0431 -0.0992,0.0992 0,0.0517 0.0474,0.0949 0.0992,0.0949 h 0.25016 v 0.23289 c -0.0777,0.0604 -0.18547,0.0949 -0.30623,0.0949 -0.25445,0 -0.42698,-0.18977 -0.42698,-0.44854 0,-0.24152 0.17684,-0.44423 0.40973,-0.44423 0.13369,0 0.22426,0.0388 0.30189,0.0992 0.0217,0.0129 0.0432,0.0259 0.069,0.0259 0.0604,0 0.11213,-0.0518 0.11213,-0.11214 0,-0.0431 -0.0259,-0.0733 -0.0474,-0.0906 -0.11213,-0.0819 -0.24154,-0.12507 -0.42699,-0.12507 -0.37951,0 -0.64693,0.29759 -0.64693,0.64693 v 0.004 c 0,0.3666 0.25448,0.64693 0.65125,0.64693 z m 0,0"
       id="path7407"
       inkscape:connector-curvature="0" />
    <path
       style="fill:#000000;fill-opacity:1;stroke:none;stroke-width:0.27602378"
       d="m 109.57085,253.54527 c 0,0.0604 0.0474,0.1035 0.10351,0.1035 0.0474,0 0.0862,-0.0259 0.1035,-0.069 l 0.10353,-0.24152 h 0.61241 l 0.10353,0.23289 c 0.0172,0.0474 0.0517,0.0776 0.10782,0.0776 0.0561,0 0.1035,-0.0474 0.1035,-0.1035 0,-0.0172 -0.004,-0.0345 -0.013,-0.0474 l -0.4658,-1.04371 c -0.0259,-0.0518 -0.069,-0.0863 -0.13369,-0.0863 h -0.009 c -0.0647,0 -0.10782,0.0345 -0.1337,0.0863 l -0.46579,1.04371 c -0.009,0.0173 -0.0172,0.0345 -0.0172,0.0474 z m 0.3968,-0.40541 0.21994,-0.50461 0.21995,0.50461 z m 0,0"
       id="path7403"
       inkscape:connector-curvature="0" />
    <path
       style="fill:#000000;fill-opacity:1;stroke:none;stroke-width:0.27602378"
       d="m 111.25048,253.54095 c 0,0.0604 0.0517,0.10782 0.11213,0.10782 0.0604,0 0.11213,-0.0474 0.11213,-0.10782 v -0.95314 h 0.3062 c 0.0561,0 0.0992,-0.0474 0.0992,-0.0992 0,-0.0561 -0.0431,-0.10351 -0.0992,-0.10351 h -0.83669 c -0.0561,0 -0.0992,0.0474 -0.0992,0.10351 0,0.0518 0.0431,0.0992 0.0992,0.0992 h 0.30623 z m 0,0"
       id="path7399"
       inkscape:connector-curvature="0" />
    <path
       style="fill:#000000;fill-opacity:1;stroke:none;stroke-width:0.27602378"
       d="m 112.25701,253.64015 h 0.74181 c 0.0518,0 0.0992,-0.0431 0.0992,-0.0992 0,-0.0518 -0.0474,-0.0992 -0.0992,-0.0992 h -0.62966 v -0.33641 h 0.53909 c 0.0517,0 0.0992,-0.0431 0.0992,-0.0949 0,-0.0561 -0.0474,-0.10351 -0.0992,-0.10351 h -0.53909 v -0.32346 h 0.62103 c 0.0518,0 0.0949,-0.0431 0.0949,-0.0992 0,-0.0561 -0.0431,-0.0992 -0.0949,-0.0992 h -0.73318 c -0.0604,0 -0.11213,0.0474 -0.11213,0.11214 v 1.03077 c 0,0.0647 0.0517,0.11214 0.11213,0.11214 z m 0,0"
       id="path7395"
       inkscape:connector-curvature="0" />
    <path
       style="fill:#000000;fill-opacity:1;stroke:none;stroke-width:0.27602378"
       d="m 114.48451,253.66171 c 0.38817,0 0.65987,-0.29759 0.65987,-0.65124 0,-0.35366 -0.26739,-0.64693 -0.65556,-0.64693 -0.38383,0 -0.65556,0.29327 -0.65556,0.64693 v 0.004 c 0,0.35366 0.26742,0.64693 0.65125,0.64693 z m 0.004,-0.2027 c -0.25014,0 -0.42699,-0.20271 -0.42699,-0.44854 0,-0.24584 0.17685,-0.44423 0.42267,-0.44423 0.25014,0 0.42699,0.20271 0.42699,0.44423 v 0.004 c 0,0.24584 -0.17254,0.44423 -0.42267,0.44423 z m 0,0"
       id="path7387"
       inkscape:connector-curvature="0" />
    <path
       style="fill:#000000;fill-opacity:1;stroke:none;stroke-width:0.27602378"
       d="m 115.98591,253.66171 c 0.32777,0 0.53912,-0.18976 0.53912,-0.56498 v -0.61243 c 0,-0.0604 -0.0474,-0.10782 -0.10782,-0.10782 -0.0647,0 -0.11216,0.0474 -0.11216,0.10782 v 0.62105 c 0,0.2329 -0.12075,0.34934 -0.31483,0.34934 -0.19838,0 -0.31914,-0.12507 -0.31914,-0.35796 v -0.61243 c 0,-0.0604 -0.0475,-0.10782 -0.10784,-0.10782 -0.0647,0 -0.11213,0.0474 -0.11213,0.10782 v 0.62105 c 0,0.3666 0.20701,0.55636 0.5348,0.55636 z m 0,0"
       id="path7383"
       inkscape:connector-curvature="0" />
    <path
       style="fill:#000000;fill-opacity:1;stroke:none;stroke-width:0.27602378"
       d="m 117.18839,253.54095 c 0,0.0604 0.0517,0.10782 0.11213,0.10782 0.0604,0 0.11213,-0.0474 0.11213,-0.10782 v -0.95314 h 0.3062 c 0.0561,0 0.0992,-0.0474 0.0992,-0.0992 0,-0.0561 -0.0431,-0.10351 -0.0992,-0.10351 h -0.83669 c -0.0561,0 -0.0992,0.0474 -0.0992,0.10351 0,0.0518 0.0431,0.0992 0.0992,0.0992 h 0.30623 z m 0,0"
       id="path7379"
       inkscape:connector-curvature="0" />
    <path
       inkscape:connector-curvature="0"
       id="path35723"
       d="M 31.535655,252.48497 H 101.42058"
       style="fill:none;stroke:#000000;stroke-width:0.27133206;stroke-linecap:round;stroke-linejoin:round;stroke-miterlimit:10;stroke-opacity:1" />
    <path
       inkscape:connector-curvature="0"
       id="path35725"
       d="m 123.91016,252.48497 h 71.4375"
       style="fill:none;stroke:#000000;stroke-width:0.27432936;stroke-linecap:round;stroke-linejoin:round;stroke-miterlimit:10;stroke-opacity:1" />
    <path
       inkscape:connector-curvature="0"
       id="path35729"
       d="m 44.799747,237.2034 v 8.5438"
       style="fill:none;stroke:#000000;stroke-width:0.18383184;stroke-linecap:round;stroke-linejoin:round;stroke-miterlimit:10;stroke-opacity:1" />
    <path
       inkscape:connector-curvature="0"
       id="path35731"
       d="m 54.853914,237.2034 v 8.5438"
       style="fill:none;stroke:#000000;stroke-width:0.18383184;stroke-linecap:round;stroke-linejoin:round;stroke-miterlimit:10;stroke-opacity:1" />
    <path
       inkscape:connector-curvature="0"
       id="path35733"
       d="m 65.172664,237.2034 v 8.5438"
       style="fill:none;stroke:#000000;stroke-width:0.18383184;stroke-linecap:round;stroke-linejoin:round;stroke-miterlimit:10;stroke-opacity:1" />
    <path
       inkscape:connector-curvature="0"
       id="path35735"
       d="m 75.22683,237.2034 v 8.5438"
       style="fill:none;stroke:#000000;stroke-width:0.18383184;stroke-linecap:round;stroke-linejoin:round;stroke-miterlimit:10;stroke-opacity:1" />
    <path
       inkscape:connector-curvature="0"
       id="path35737"
       d="m 85.54558,237.2034 v 8.5438"
       style="fill:none;stroke:#000000;stroke-width:0.18383184;stroke-linecap:round;stroke-linejoin:round;stroke-miterlimit:10;stroke-opacity:1" />
    <path
       inkscape:connector-curvature="0"
       id="path35739"
       d="m 95.599747,237.2034 v 8.5438"
       style="fill:none;stroke:#000000;stroke-width:0.18383184;stroke-linecap:round;stroke-linejoin:round;stroke-miterlimit:10;stroke-opacity:1" />
    <path
       inkscape:connector-curvature="0"
       id="path35741"
       d="m 105.9185,237.2034 v 8.5438"
       style="fill:none;stroke:#000000;stroke-width:0.18383184;stroke-linecap:round;stroke-linejoin:round;stroke-miterlimit:10;stroke-opacity:1" />
    <path
       style="fill:#000000;fill-opacity:1;stroke:none;stroke-width:0.27602378"
       d="m 31.482924,174.1527 c 0.250164,0 0.418359,-0.0776 0.564991,-0.20701 0.0217,-0.0216 0.04313,-0.0561 0.04313,-0.0992 0,-0.0647 -0.06038,-0.12508 -0.129381,-0.12508 -0.0345,0 -0.06038,0.0129 -0.08194,0.0302 -0.112131,0.0949 -0.224261,0.15095 -0.383858,0.15095 -0.297577,0 -0.513212,-0.24583 -0.513212,-0.54773 v -0.004 c 0,-0.3019 0.215635,-0.54773 0.513212,-0.54773 0.146659,0 0.258789,0.0561 0.366607,0.14232 0.0172,0.0129 0.04313,0.0259 0.08194,0.0259 0.07332,0 0.133694,-0.0604 0.133694,-0.1337 0,-0.0474 -0.0217,-0.0863 -0.05175,-0.10782 -0.133694,-0.10351 -0.293264,-0.17683 -0.53049,-0.17683 -0.470085,0 -0.797877,0.36228 -0.797877,0.80219 v 0.004 c 0,0.44423 0.336417,0.79357 0.784939,0.79357 z m 0,0"
       id="path7375"
       inkscape:connector-curvature="0" />
    <path
       style="fill:#000000;fill-opacity:1;stroke:none;stroke-width:0.27602378"
       d="m 32.449659,173.98882 c 0,0.0776 0.06038,0.13801 0.138006,0.13801 h 0.832406 c 0.069,0 0.125068,-0.0561 0.125068,-0.12508 0,-0.069 -0.05607,-0.12076 -0.125068,-0.12076 h -0.698685 v -1.17741 c 0,-0.0733 -0.06038,-0.1337 -0.133721,-0.1337 -0.07763,0 -0.138006,0.0604 -0.138006,0.1337 z m 0,0"
       id="path7371"
       inkscape:connector-curvature="0" />
    <path
       style="fill:#000000;fill-opacity:1;stroke:none;stroke-width:0.27602378"
       d="m 34.520658,174.1527 c 0.474425,0 0.810816,-0.36228 0.810816,-0.79788 v -0.004 c 0,-0.4356 -0.332079,-0.79788 -0.806503,-0.79788 -0.474398,0 -0.810816,0.3666 -0.810816,0.8022 v 0.004 c 0,0.4356 0.332105,0.79357 0.806503,0.79356 z m 0.0042,-0.25014 c -0.306202,0 -0.52615,-0.25015 -0.52615,-0.54774 v -0.004 c 0,-0.3019 0.215635,-0.54773 0.521838,-0.54773 0.306229,0 0.526177,0.25015 0.526177,0.55205 v 0.004 c 0,0.29758 -0.215636,0.54342 -0.521865,0.54342 z m 0,0"
       id="path7367"
       inkscape:connector-curvature="0" />
    <path
       style="fill:#000000;fill-opacity:1;stroke:none;stroke-width:0.27602378"
       d="m 36.418911,174.1527 c 0.250164,0 0.418359,-0.0776 0.564992,-0.20701 0.0217,-0.0216 0.04313,-0.0561 0.04313,-0.0992 0,-0.0647 -0.06038,-0.12508 -0.129382,-0.12508 -0.0345,0 -0.06038,0.0129 -0.08194,0.0302 -0.112131,0.0949 -0.224261,0.15095 -0.383858,0.15095 -0.297576,0 -0.513212,-0.24583 -0.513212,-0.54773 v -0.004 c 0,-0.3019 0.215636,-0.54773 0.513212,-0.54773 0.146659,0 0.258789,0.0561 0.366607,0.14232 0.0172,0.0129 0.04313,0.0259 0.08194,0.0259 0.07332,0 0.133693,-0.0604 0.133693,-0.1337 0,-0.0474 -0.0217,-0.0863 -0.05175,-0.10782 -0.133694,-0.10351 -0.293264,-0.17683 -0.53049,-0.17683 -0.470085,0 -0.797877,0.36228 -0.797877,0.80219 v 0.004 c 0,0.44423 0.336418,0.79357 0.784939,0.79357 z m 0,0"
       id="path7363"
       inkscape:connector-curvature="0" />
    <path
       style="fill:#000000;fill-opacity:1;stroke:none;stroke-width:0.27602378"
       d="m 37.385593,174.00175 c 0,0.0776 0.06038,0.13802 0.138007,0.13802 0.07334,0 0.13372,-0.0604 0.13372,-0.13802 v -0.31915 l 0.250137,-0.24152 0.500301,0.63399 c 0.02593,0.0345 0.06038,0.0647 0.11213,0.0647 0.07763,0 0.138007,-0.0604 0.138007,-0.1337 0,-0.0431 -0.0172,-0.069 -0.03881,-0.0992 l -0.521864,-0.64693 0.48305,-0.46147 c 0.03019,-0.0302 0.04744,-0.0604 0.04744,-0.10351 0,-0.0647 -0.04744,-0.12508 -0.125069,-0.12508 -0.04744,0 -0.08194,0.0172 -0.11213,0.0517 l -0.733187,0.7375 v -0.65555 c 0,-0.0733 -0.06038,-0.1337 -0.13372,-0.1337 -0.07763,0 -0.138007,0.0604 -0.138007,0.1337 z m 0,0"
       id="path7359"
       inkscape:connector-curvature="0" />
    <path
       style="fill:#000000;fill-opacity:1;stroke:none;stroke-width:0.27602378"
       d="m 62.229492,174.14839 c 0.323479,0 0.552053,-0.17251 0.552053,-0.46148 v -0.004 c 0,-0.25445 -0.168196,-0.3709 -0.495988,-0.45285 -0.297577,-0.069 -0.370893,-0.12507 -0.370893,-0.24152 v -0.004 c 0,-0.10351 0.09488,-0.18545 0.25445,-0.18545 0.120756,0 0.232886,0.0431 0.353642,0.11645 0.0217,0.0129 0.04315,0.0216 0.07334,0.0216 0.069,0 0.125069,-0.0561 0.125069,-0.12508 0,-0.0517 -0.02593,-0.0906 -0.06038,-0.10782 -0.138033,-0.0949 -0.293291,-0.14664 -0.487363,-0.14664 -0.306202,0 -0.530489,0.18546 -0.530489,0.44854 v 0.004 c 0,0.28465 0.185446,0.38385 0.517551,0.46148 0.284639,0.069 0.34933,0.12939 0.34933,0.23721 v 0.004 c 0,0.11645 -0.107818,0.19408 -0.276014,0.19408 -0.168195,0 -0.306202,-0.0561 -0.431297,-0.15958 -0.0172,-0.0129 -0.04313,-0.0216 -0.08194,-0.0216 -0.069,0 -0.125069,0.0561 -0.125069,0.12508 0,0.0431 0.0217,0.0819 0.05175,0.1035 0.172508,0.12939 0.370919,0.19408 0.582242,0.19408 z m 0,0"
       id="path7355"
       inkscape:connector-curvature="0" />
    <path
       style="fill:#000000;fill-opacity:1;stroke:none;stroke-width:0.27602378"
       d="m 63.518621,174.00175 c 0,0.0776 0.06038,0.13802 0.138007,0.13802 0.07332,0 0.138006,-0.0604 0.138006,-0.13802 v -1.16878 h 0.375232 c 0.069,0 0.125069,-0.0561 0.125069,-0.12508 0,-0.069 -0.05607,-0.12507 -0.125069,-0.12507 h -1.026477 c -0.069,0 -0.125069,0.0561 -0.125069,0.12507 0,0.069 0.05607,0.12508 0.125069,0.12508 h 0.375232 z m 0,0"
       id="path7351"
       inkscape:connector-curvature="0" />
    <path
       style="fill:#000000;fill-opacity:1;stroke:none;stroke-width:0.27602378"
       d="m 64.743324,174.12683 h 0.910035 c 0.06469,0 0.120756,-0.0517 0.120756,-0.12076 0,-0.069 -0.05607,-0.12076 -0.120756,-0.12076 h -0.776314 v -0.41835 h 0.664183 c 0.069,0 0.120756,-0.0517 0.120756,-0.11645 0,-0.069 -0.05175,-0.12507 -0.120756,-0.12507 h -0.664183 v -0.4011 h 0.763376 c 0.069,0 0.120755,-0.0517 0.120755,-0.12076 0,-0.069 -0.05175,-0.12076 -0.120755,-0.12076 h -0.897097 c -0.07763,0 -0.138006,0.0561 -0.138006,0.1337 v 1.2723 c 0,0.0776 0.06038,0.13801 0.138006,0.13801 z m 0,0"
       id="path7347"
       inkscape:connector-curvature="0" />
    <path
       style="fill:#000000;fill-opacity:1;stroke:none;stroke-width:0.27602378"
       d="m 66.130508,174.00175 c 0,0.0776 0.06038,0.13802 0.138007,0.13802 0.07334,0 0.13372,-0.0604 0.13372,-0.13802 v -0.3709 h 0.306203 c 0.34073,0 0.621056,-0.18114 0.621056,-0.53049 v -0.004 c 0,-0.31052 -0.228573,-0.51323 -0.590867,-0.51323 h -0.470112 c -0.07763,0 -0.138007,0.0561 -0.138007,0.1337 z m 0.271727,-0.61674 v -0.55636 h 0.314828 c 0.202697,0 0.336418,0.0949 0.336418,0.27603 v 0.004 c 0,0.15957 -0.129408,0.27602 -0.336418,0.27602 z m 0,0"
       id="path7343"
       inkscape:connector-curvature="0" />
    <path
       style="fill:#000000;fill-opacity:1;stroke:none;stroke-width:0.27602378"
       d="m 68.202011,174.14839 c 0.323479,0 0.552053,-0.17251 0.552053,-0.46148 v -0.004 c 0,-0.25445 -0.168196,-0.3709 -0.495988,-0.45285 -0.297577,-0.069 -0.370893,-0.12507 -0.370893,-0.24152 v -0.004 c 0,-0.10351 0.09488,-0.18545 0.25445,-0.18545 0.120756,0 0.232886,0.0431 0.353642,0.11645 0.0217,0.0129 0.04315,0.0216 0.07334,0.0216 0.069,0 0.125069,-0.0561 0.125069,-0.12508 0,-0.0517 -0.02593,-0.0906 -0.06038,-0.10782 -0.138033,-0.0949 -0.293291,-0.14664 -0.487363,-0.14664 -0.306202,0 -0.530489,0.18546 -0.530489,0.44854 v 0.004 c 0,0.28465 0.185446,0.38385 0.517551,0.46148 0.284639,0.069 0.34933,0.12939 0.34933,0.23721 v 0.004 c 0,0.11645 -0.107818,0.19408 -0.276014,0.19408 -0.168195,0 -0.306202,-0.0561 -0.431297,-0.15958 -0.0172,-0.0129 -0.04313,-0.0216 -0.08194,-0.0216 -0.069,0 -0.125069,0.0561 -0.125069,0.12508 0,0.0431 0.0217,0.0819 0.05175,0.1035 0.172508,0.12939 0.370919,0.19408 0.582242,0.19408 z m 0,0"
       id="path7339"
       inkscape:connector-curvature="0" />
    <path
       style="fill:#000000;fill-opacity:1;stroke:none;stroke-width:0.27602378"
       d="m 42.895329,175.35142 c 0,0.0604 0.05175,0.10782 0.112131,0.10782 0.06038,0 0.112156,-0.0474 0.112156,-0.10782 v -0.34072 h 0.276014 l 0.306202,0.39247 c 0.02593,0.0345 0.05607,0.0561 0.107844,0.0561 0.05175,0 0.103505,-0.0388 0.103505,-0.10351 0,-0.0345 -0.01296,-0.0561 -0.0345,-0.0819 l -0.241539,-0.3019 c 0.168223,-0.0561 0.284666,-0.17683 0.284666,-0.37522 v -0.004 c 0,-0.11213 -0.0345,-0.2027 -0.103505,-0.27171 -0.07766,-0.0776 -0.202724,-0.12507 -0.362294,-0.12507 h -0.448548 c -0.06038,0 -0.112131,0.0474 -0.112131,0.11213 z m 0.224287,-0.5348 v -0.42266 h 0.319141 c 0.163883,0 0.258762,0.0733 0.258762,0.21133 0,0.12939 -0.09919,0.21133 -0.258762,0.21133 z m 0,0"
       id="path7335"
       inkscape:connector-curvature="0" />
    <path
       style="fill:#000000;fill-opacity:1;stroke:none;stroke-width:0.27602378"
       d="m 44.769241,175.47218 c 0.327765,0 0.539115,-0.18977 0.539115,-0.56499 v -0.61243 c 0,-0.0604 -0.04744,-0.10782 -0.107818,-0.10782 -0.06472,0 -0.112157,0.0474 -0.112157,0.10782 v 0.62106 c 0,0.23289 -0.120756,0.34934 -0.314828,0.34934 -0.198384,0 -0.31914,-0.12507 -0.31914,-0.35797 v -0.61243 c 0,-0.0604 -0.04747,-0.10782 -0.107844,-0.10782 -0.06469,0 -0.112131,0.0474 -0.112131,0.10782 v 0.62106 c 0,0.36659 0.20701,0.55636 0.534803,0.55636 z m 0,0"
       id="path7331"
       inkscape:connector-curvature="0" />
    <path
       style="fill:#000000;fill-opacity:1;stroke:none;stroke-width:0.27602378"
       d="m 45.679857,175.35142 c 0,0.0604 0.05175,0.10782 0.112131,0.10782 0.06038,0 0.107844,-0.0474 0.107844,-0.10782 v -0.79789 l 0.646906,0.8367 c 0.03021,0.0388 0.0604,0.069 0.112157,0.069 h 0.0087 c 0.06038,0 0.107818,-0.0517 0.107818,-0.11213 v -1.05234 c 0,-0.0604 -0.04744,-0.10783 -0.107818,-0.10783 -0.06038,0 -0.107844,0.0474 -0.107844,0.10783 v 0.772 l -0.629656,-0.81513 c -0.03019,-0.0388 -0.0604,-0.0647 -0.112156,-0.0647 h -0.02593 c -0.06038,0 -0.11213,0.0517 -0.11213,0.11213 z m 0,0"
       id="path7327"
       inkscape:connector-curvature="0" />
    <path
       style="fill:#000000;fill-opacity:1;stroke:none;stroke-width:0.27602378"
       d="m 52.036525,175.35142 c 0,0.0604 0.05175,0.10782 0.11213,0.10782 0.06038,0 0.112157,-0.0474 0.112157,-0.10782 v -0.34072 h 0.276013 l 0.306203,0.39247 c 0.02593,0.0345 0.05606,0.0561 0.107844,0.0561 0.05175,0 0.103505,-0.0388 0.103505,-0.10351 0,-0.0345 -0.01297,-0.0561 -0.0345,-0.0819 l -0.24154,-0.30191 c 0.168222,-0.0561 0.284665,-0.17682 0.284665,-0.37522 v -0.004 c 0,-0.11213 -0.0345,-0.2027 -0.103505,-0.27171 -0.07766,-0.0776 -0.202724,-0.12507 -0.362294,-0.12507 h -0.448548 c -0.06038,0 -0.11213,0.0474 -0.11213,0.11213 z m 0.224287,-0.5348 v -0.42266 h 0.31914 c 0.163883,0 0.258763,0.0733 0.258763,0.21133 0,0.12939 -0.09919,0.21133 -0.258763,0.21133 z m 0,0"
       id="path7323"
       inkscape:connector-curvature="0" />
    <path
       style="fill:#000000;fill-opacity:1;stroke:none;stroke-width:0.27602378"
       d="m 53.509169,175.45061 h 0.741812 c 0.05178,0 0.09922,-0.0431 0.09922,-0.0992 0,-0.0517 -0.04744,-0.0992 -0.09922,-0.0992 h -0.629655 v -0.3364 h 0.539088 c 0.05175,0 0.09919,-0.0431 0.09919,-0.0949 0,-0.0561 -0.04744,-0.10351 -0.09919,-0.10351 h -0.539088 v -0.32347 h 0.62103 c 0.05178,0 0.09491,-0.0431 0.09491,-0.0992 0,-0.0561 -0.04313,-0.0992 -0.09491,-0.0992 h -0.733187 c -0.06038,0 -0.11213,0.0474 -0.11213,0.11214 v 1.03077 c 0,0.0647 0.05175,0.11214 0.11213,0.11214 z m 0,0"
       id="path7319"
       inkscape:connector-curvature="0" />
    <path
       style="fill:#000000;fill-opacity:1;stroke:none;stroke-width:0.27602378"
       d="m 55.092885,175.46786 c 0.267388,0 0.448522,-0.13801 0.448522,-0.37522 v -0.004 c 0,-0.20701 -0.133694,-0.3019 -0.401082,-0.36659 -0.241511,-0.0561 -0.297603,-0.0992 -0.297603,-0.19839 0,-0.0863 0.07334,-0.15095 0.202724,-0.15095 0.09919,0 0.194072,0.0302 0.288951,0.0949 0.0172,0.0129 0.0345,0.0173 0.05606,0.0173 0.06038,0 0.107818,-0.0474 0.107818,-0.10351 0,-0.0431 -0.02593,-0.0733 -0.05175,-0.0863 -0.112131,-0.0776 -0.237199,-0.11645 -0.39677,-0.11645 -0.250163,0 -0.426984,0.14664 -0.426984,0.36228 v 0.004 c 0,0.2329 0.146632,0.31053 0.414046,0.37522 0.237199,0.0517 0.284639,0.10351 0.284639,0.18977 v 0.004 c 0,0.0949 -0.08625,0.15957 -0.219948,0.15957 -0.138007,0 -0.250137,-0.0474 -0.353669,-0.12938 -0.01296,-0.0129 -0.0345,-0.0216 -0.06469,-0.0216 -0.05607,0 -0.103505,0.0474 -0.103505,0.10351 0,0.0345 0.0172,0.0647 0.04313,0.0863 0.138006,0.10351 0.301916,0.15526 0.470111,0.15526 z m 0,0"
       id="path7315"
       inkscape:connector-curvature="0" />
    <path
       style="fill:#000000;fill-opacity:1;stroke:none;stroke-width:0.27602378"
       d="m 55.975059,175.45061 h 0.741812 c 0.05178,0 0.09922,-0.0431 0.09922,-0.0992 0,-0.0517 -0.04744,-0.0992 -0.09922,-0.0992 h -0.629655 v -0.3364 h 0.539089 c 0.05175,0 0.09919,-0.0431 0.09919,-0.0949 0,-0.0561 -0.04744,-0.10351 -0.09919,-0.10351 h -0.539089 v -0.32347 h 0.62103 c 0.05178,0 0.09491,-0.0431 0.09491,-0.0992 0,-0.0561 -0.04313,-0.0992 -0.09491,-0.0992 h -0.733187 c -0.06038,0 -0.11213,0.0474 -0.11213,0.11214 v 1.03077 c 0,0.0647 0.05175,0.11214 0.11213,0.11214 z m 0,0"
       id="path7311"
       inkscape:connector-curvature="0" />
    <path
       style="fill:#000000;fill-opacity:1;stroke:none;stroke-width:0.27602378"
       d="m 57.445693,175.35142 c 0,0.0604 0.05175,0.10782 0.11213,0.10782 0.06038,0 0.112131,-0.0474 0.112131,-0.10782 v -0.95315 h 0.306202 c 0.05609,0 0.09922,-0.0474 0.09922,-0.0992 0,-0.0561 -0.04313,-0.10351 -0.09922,-0.10351 h -0.836692 c -0.05607,0 -0.09919,0.0474 -0.09919,0.10351 0,0.0517 0.04313,0.0992 0.09919,0.0992 h 0.306229 z m 0,0"
       id="path7307"
       inkscape:connector-curvature="0" />
    <path
       inkscape:connector-curvature="0"
       id="path35805"
       d="m 34.74558,181.31115 v 10.7908"
       style="fill:none;stroke:#000000;stroke-width:0.18383184;stroke-linecap:round;stroke-linejoin:round;stroke-miterlimit:10;stroke-opacity:1" />
    <path
       inkscape:connector-curvature="0"
       id="path35807"
       d="m 75.22683,179.72419 v 10.78972"
       style="fill:none;stroke:#000000;stroke-width:0.18383184;stroke-linecap:round;stroke-linejoin:round;stroke-miterlimit:10;stroke-opacity:1" />
    <path
       inkscape:connector-curvature="0"
       id="path35809"
       d="m 55.118497,179.72419 v 10.78972"
       style="fill:none;stroke:#000000;stroke-width:0.18383184;stroke-linecap:round;stroke-linejoin:round;stroke-miterlimit:10;stroke-opacity:1" />
    <path
       inkscape:connector-curvature="0"
       id="path35811"
       d="m 85.54558,179.72419 v 10.78972"
       style="fill:none;stroke:#000000;stroke-width:0.18383184;stroke-linecap:round;stroke-linejoin:round;stroke-miterlimit:10;stroke-opacity:1" />
    <path
       inkscape:connector-curvature="0"
       id="path35813"
       d="m 95.599747,179.72419 v 10.78972"
       style="fill:none;stroke:#000000;stroke-width:0.18383184;stroke-linecap:round;stroke-linejoin:round;stroke-miterlimit:10;stroke-opacity:1" />
    <path
       inkscape:connector-curvature="0"
       id="path35815"
       d="m 105.9185,179.72419 v 10.78972"
       style="fill:none;stroke:#000000;stroke-width:0.18383184;stroke-linecap:round;stroke-linejoin:round;stroke-miterlimit:10;stroke-opacity:1" />
    <path
       inkscape:connector-curvature="0"
       id="path35817"
       d="m 65.172664,179.72419 v 10.78972"
       style="fill:none;stroke:#000000;stroke-width:0.18383184;stroke-linecap:round;stroke-linejoin:round;stroke-miterlimit:10;stroke-opacity:1" />
    <path
       style="fill:#000000;fill-opacity:1;stroke:none;stroke-width:0.27602378"
       d="m 41.048061,185.72278 h 0.741813 c 0.05178,0 0.09922,-0.0431 0.09922,-0.0992 0,-0.0517 -0.04744,-0.0992 -0.09922,-0.0992 h -0.629656 v -0.3364 h 0.539089 c 0.05175,0 0.09919,-0.0431 0.09919,-0.0949 0,-0.0561 -0.04744,-0.10351 -0.09919,-0.10351 h -0.539089 v -0.32346 h 0.62103 c 0.05178,0 0.09491,-0.0431 0.09491,-0.0992 0,-0.0561 -0.04313,-0.0992 -0.09491,-0.0992 h -0.733187 c -0.06038,0 -0.11213,0.0474 -0.11213,0.11213 v 1.03077 c 0,0.0647 0.05175,0.11214 0.11213,0.11214 z m 0,0"
       id="path7303"
       inkscape:connector-curvature="0" />
    <path
       style="fill:#000000;fill-opacity:1;stroke:none;stroke-width:0.27602378"
       d="m 42.13198,185.62789 c 0,0.0647 0.05175,0.10351 0.103505,0.10351 0.04744,0 0.07763,-0.0216 0.107818,-0.0604 l 0.332105,-0.43129 0.336391,0.43992 c 0.02593,0.0345 0.05175,0.0517 0.09922,0.0517 0.06469,0 0.11213,-0.0474 0.11213,-0.10782 0,-0.0302 -0.0172,-0.0604 -0.0345,-0.0819 l -0.370919,-0.46148 0.349356,-0.4356 c 0.0217,-0.0302 0.0345,-0.0517 0.0345,-0.0863 0,-0.0604 -0.05175,-0.0992 -0.09919,-0.0992 -0.04747,0 -0.07766,0.0216 -0.107844,0.0604 l -0.314828,0.40972 -0.314854,-0.41834 c -0.03019,-0.0345 -0.05607,-0.0517 -0.103505,-0.0517 -0.06038,0 -0.107818,0.0474 -0.107818,0.10782 0,0.0302 0.0172,0.0561 0.0345,0.0819 l 0.349356,0.43559 -0.37092,0.46148 c -0.0217,0.0259 -0.0345,0.0518 -0.0345,0.0819 z m 0,0"
       id="path7299"
       inkscape:connector-curvature="0" />
    <path
       style="fill:#000000;fill-opacity:1;stroke:none;stroke-width:0.27602378"
       d="m 43.851428,185.62358 c 0,0.0604 0.05175,0.10782 0.11213,0.10782 0.06038,0 0.11213,-0.0474 0.11213,-0.10782 v -0.95314 h 0.306203 c 0.05609,0 0.09922,-0.0475 0.09922,-0.0992 0,-0.0561 -0.04313,-0.1035 -0.09922,-0.1035 h -0.836692 c -0.05607,0 -0.09919,0.0474 -0.09919,0.1035 0,0.0517 0.04313,0.0992 0.09919,0.0992 h 0.306229 z m 0,0"
       id="path7295"
       inkscape:connector-curvature="0" />
    <path
       style="fill:#000000;fill-opacity:1;stroke:none;stroke-width:0.27602378"
       d="m 45.828288,185.74434 c 0.202698,0 0.336418,-0.0647 0.452861,-0.1682 0.0217,-0.0173 0.03881,-0.0474 0.03881,-0.0776 0,-0.0561 -0.05175,-0.10351 -0.107818,-0.10351 -0.02593,0 -0.04744,0.009 -0.06469,0.0259 -0.09059,0.0776 -0.18116,0.12076 -0.314854,0.12076 -0.237199,0 -0.414046,-0.2027 -0.414046,-0.44853 0,-0.24584 0.176847,-0.44423 0.414046,-0.44423 0.120756,0 0.215635,0.0431 0.301916,0.11214 0.01296,0.0129 0.0345,0.0216 0.06469,0.0216 0.06038,0 0.11213,-0.0474 0.11213,-0.10782 0,-0.0388 -0.0217,-0.069 -0.04313,-0.0863 -0.11213,-0.0863 -0.237225,-0.14232 -0.431297,-0.14232 -0.379519,0 -0.646933,0.29327 -0.646933,0.64693 v 0.004 c 0,0.36228 0.271727,0.64693 0.638307,0.64693 z m 0,0"
       id="path7287"
       inkscape:connector-curvature="0" />
    <path
       style="fill:#000000;fill-opacity:1;stroke:none;stroke-width:0.27602378"
       d="m 46.622144,185.61064 c 0,0.0647 0.05175,0.11214 0.112131,0.11214 h 0.677121 c 0.05607,0 0.103532,-0.0431 0.103532,-0.0992 0,-0.0561 -0.04747,-0.10351 -0.103532,-0.10351 h -0.564965 v -0.95314 c 0,-0.0604 -0.05178,-0.10782 -0.112156,-0.10782 -0.06038,0 -0.112131,0.0474 -0.112131,0.10782 z m 0,0"
       id="path7283"
       inkscape:connector-curvature="0" />
    <path
       style="fill:#000000;fill-opacity:1;stroke:none;stroke-width:0.27602378"
       d="m 47.77668,185.62358 c 0,0.0604 0.05175,0.10782 0.11213,0.10782 0.06038,0 0.112157,-0.0474 0.112157,-0.10782 v -0.26308 l 0.202698,-0.19408 0.405394,0.51323 c 0.0217,0.0302 0.04744,0.0517 0.09059,0.0517 0.06469,0 0.11213,-0.0474 0.11213,-0.10782 0,-0.0345 -0.01297,-0.0561 -0.03019,-0.0776 l -0.422672,-0.52617 0.38817,-0.37522 c 0.02593,-0.0259 0.04313,-0.0517 0.04313,-0.0863 0,-0.0517 -0.04313,-0.0992 -0.103505,-0.0992 -0.03884,0 -0.06472,0.0129 -0.09059,0.0388 l -0.595154,0.59949 v -0.53048 c 0,-0.0604 -0.05178,-0.10782 -0.112157,-0.10782 -0.06038,0 -0.11213,0.0474 -0.11213,0.10782 z m 0,0"
       id="path7279"
       inkscape:connector-curvature="0" />
    <path
       inkscape:connector-curvature="0"
       id="path36677"
       d="m 48.587522,242.56724 c 0,-0.35581 -0.291121,-0.64693 -0.646933,-0.64693 h -6.281684 c -0.355812,0 -0.646933,0.29112 -0.646933,0.64693 v 6.28278 c 0,0.35581 0.291121,0.64693 0.646933,0.64693 h 6.281684 c 0.355812,0 0.646933,-0.29112 0.646933,-0.64693 z m 0,0"
       style="fill:#000000;fill-opacity:1;fill-rule:nonzero;stroke:none;stroke-width:0.27602378" />
    <path
       inkscape:connector-curvature="0"
       id="path36679"
       d="m 58.641689,242.56724 c 0,-0.35581 -0.291121,-0.64693 -0.646933,-0.64693 h -6.281711 c -0.355785,0 -0.646906,0.29112 -0.646906,0.64693 v 6.28278 c 0,0.35581 0.291121,0.64693 0.646906,0.64693 h 6.281711 c 0.355812,0 0.646933,-0.29112 0.646933,-0.64693 z m 0,0"
       style="fill:#000000;fill-opacity:1;fill-rule:nonzero;stroke:none;stroke-width:0.27602378" />
    <path
       inkscape:connector-curvature="0"
       id="path36681"
       d="m 68.960439,242.56724 c 0,-0.35581 -0.29001,-0.64693 -0.645848,-0.64693 h -6.28277 c -0.355811,0 -0.646932,0.29112 -0.646932,0.64693 v 6.28278 c 0,0.35581 0.291121,0.64693 0.646932,0.64693 h 6.28277 c 0.355838,0 0.645848,-0.29112 0.645848,-0.64693 z m 0,0"
       style="fill:#000000;fill-opacity:1;fill-rule:nonzero;stroke:none;stroke-width:0.27602378" />
    <path
       inkscape:connector-curvature="0"
       id="path36683"
       d="m 79.014605,242.56724 c 0,-0.35581 -0.291121,-0.64693 -0.646906,-0.64693 h -6.281711 c -0.355812,0 -0.646933,0.29112 -0.646933,0.64693 v 6.28278 c 0,0.35581 0.291121,0.64693 0.646933,0.64693 h 6.281711 c 0.355785,0 0.646906,-0.29112 0.646906,-0.64693 z m 0,0"
       style="fill:#ff0000;fill-opacity:1;fill-rule:nonzero;stroke:none;stroke-width:0.27602378" />
    <path
       inkscape:connector-curvature="0"
       id="path36685"
       d="m 89.333355,242.56724 c 0,-0.35581 -0.291121,-0.64693 -0.646959,-0.64693 h -6.281684 c -0.355812,0 -0.646907,0.29112 -0.646907,0.64693 v 6.28278 c 0,0.35581 0.291095,0.64693 0.646907,0.64693 h 6.281684 c 0.355838,0 0.646959,-0.29112 0.646959,-0.64693 z m 0,0"
       style="fill:#000000;fill-opacity:1;fill-rule:nonzero;stroke:none;stroke-width:0.27602378" />
    <path
       inkscape:connector-curvature="0"
       id="path36687"
       d="m 99.387522,242.56724 c 0,-0.35581 -0.291121,-0.64693 -0.646906,-0.64693 h -6.28277 c -0.355838,0 -0.645874,0.29112 -0.645874,0.64693 v 6.28278 c 0,0.35581 0.290036,0.64693 0.645874,0.64693 h 6.28277 c 0.355785,0 0.646906,-0.29112 0.646906,-0.64693 z m 0,0"
       style="fill:#000000;fill-opacity:1;fill-rule:nonzero;stroke:none;stroke-width:0.27602378" />
    <path
       inkscape:connector-curvature="0"
       id="path36689"
       d="m 109.70627,242.56724 c 0,-0.35581 -0.29112,-0.64693 -0.64693,-0.64693 h -6.28171 c -0.35579,0 -0.64691,0.29112 -0.64691,0.64693 v 6.28278 c 0,0.35581 0.29112,0.64693 0.64691,0.64693 h 6.28171 c 0.35581,0 0.64693,-0.29112 0.64693,-0.64693 z m 0,0"
       style="fill:#000000;fill-opacity:1;fill-rule:nonzero;stroke:none;stroke-width:0.27602378" />
    <path
       style="fill:#000000;fill-opacity:1;stroke:none;stroke-width:0.27602378"
       d="m 73.542731,175.47218 c 0.185447,0 0.336418,-0.0647 0.444235,-0.13802 0.05175,-0.0302 0.07763,-0.0776 0.07763,-0.13801 v -0.3364 c 0,-0.0604 -0.04744,-0.11214 -0.11213,-0.11214 H 73.60311 c -0.05175,0 -0.09919,0.0431 -0.09919,0.0992 0,0.0517 0.04744,0.0949 0.09919,0.0949 h 0.250164 v 0.2329 c -0.07766,0.0604 -0.185473,0.0949 -0.306229,0.0949 -0.25445,0 -0.426985,-0.18977 -0.426985,-0.44854 0,-0.24152 0.176848,-0.44423 0.409734,-0.44423 0.133694,0 0.224261,0.0388 0.30189,0.0992 0.0217,0.0129 0.04315,0.0259 0.06903,0.0259 0.06038,0 0.112131,-0.0517 0.112131,-0.11213 0,-0.0431 -0.02593,-0.0733 -0.04744,-0.0906 -0.11213,-0.082 -0.241538,-0.12507 -0.426985,-0.12507 -0.379518,0 -0.646932,0.29758 -0.646932,0.64693 v 0.004 c 0,0.36659 0.254476,0.64693 0.651245,0.64693 z m 0,0"
       id="path6783"
       inkscape:connector-curvature="0" />
    <path
       style="fill:#000000;fill-opacity:1;stroke:none;stroke-width:0.27602378"
       d="m 74.302535,175.35573 c 0,0.0604 0.04744,0.10351 0.103505,0.10351 0.04744,0 0.08625,-0.0259 0.103505,-0.069 l 0.103531,-0.24152 h 0.612405 l 0.103532,0.23289 c 0.0172,0.0474 0.05175,0.0776 0.107817,0.0776 0.05607,0 0.103505,-0.0474 0.103505,-0.10351 0,-0.0172 -0.0042,-0.0345 -0.01296,-0.0474 l -0.465799,-1.04371 c -0.02593,-0.0517 -0.069,-0.0863 -0.133694,-0.0863 h -0.0087 c -0.06469,0 -0.107817,0.0345 -0.133693,0.0863 l -0.465799,1.04371 c -0.0087,0.0172 -0.0172,0.0345 -0.0172,0.0474 z m 0.396796,-0.40541 0.219948,-0.50461 0.219948,0.50461 z m 0,0"
       id="path6779"
       inkscape:connector-curvature="0" />
    <path
       style="fill:#000000;fill-opacity:1;stroke:none;stroke-width:0.27602378"
       d="m 75.982136,175.35142 c 0,0.0604 0.05175,0.10782 0.112131,0.10782 0.06038,0 0.11213,-0.0474 0.11213,-0.10782 v -0.95315 H 76.5126 c 0.05609,0 0.09922,-0.0474 0.09922,-0.0992 0,-0.0561 -0.04313,-0.10351 -0.09922,-0.10351 h -0.836692 c -0.05606,0 -0.09919,0.0474 -0.09919,0.10351 0,0.0517 0.04313,0.0992 0.09919,0.0992 h 0.306228 z m 0,0"
       id="path6775"
       inkscape:connector-curvature="0" />
    <path
       style="fill:#000000;fill-opacity:1;stroke:none;stroke-width:0.27602378"
       d="m 76.988717,175.45061 h 0.741813 c 0.05178,0 0.09922,-0.0431 0.09922,-0.0992 0,-0.0517 -0.04744,-0.0992 -0.09922,-0.0992 h -0.629656 v -0.3364 h 0.539089 c 0.05175,0 0.09919,-0.0431 0.09919,-0.0949 0,-0.0561 -0.04744,-0.10351 -0.09919,-0.10351 h -0.539089 v -0.32347 h 0.62103 c 0.05178,0 0.09491,-0.0431 0.09491,-0.0992 0,-0.0561 -0.04313,-0.0992 -0.09491,-0.0992 h -0.733187 c -0.06038,0 -0.11213,0.0474 -0.11213,0.11214 v 1.03077 c 0,0.0647 0.05175,0.11214 0.11213,0.11214 z m 0,0"
       id="path6771"
       inkscape:connector-curvature="0" />
    <path
       style="fill:#000000;fill-opacity:1;stroke:none;stroke-width:0.27602378"
       d="m 82.637069,175.35142 c 0,0.0604 0.05175,0.10782 0.11213,0.10782 0.06038,0 0.112157,-0.0474 0.112157,-0.10782 v -0.34072 h 0.276013 l 0.306203,0.39247 c 0.02593,0.0345 0.05606,0.0561 0.107844,0.0561 0.05175,0 0.103505,-0.0388 0.103505,-0.10351 0,-0.0345 -0.01297,-0.0561 -0.0345,-0.0819 l -0.241538,-0.3019 c 0.168222,-0.0561 0.284665,-0.17683 0.284665,-0.37522 v -0.004 c 0,-0.11213 -0.0345,-0.2027 -0.103505,-0.27171 -0.07766,-0.0776 -0.202723,-0.12507 -0.362294,-0.12507 h -0.448548 c -0.06038,0 -0.11213,0.0474 -0.11213,0.11213 z m 0.224287,-0.5348 v -0.42266 h 0.31914 c 0.163883,0 0.258763,0.0733 0.258763,0.21133 0,0.12939 -0.09919,0.21133 -0.258763,0.21133 z m 0,0"
       id="path6767"
       inkscape:connector-curvature="0" />
    <path
       style="fill:#000000;fill-opacity:1;stroke:none;stroke-width:0.27602378"
       d="m 84.575168,175.47218 c 0.38817,0 0.659871,-0.29759 0.659871,-0.65125 0,-0.35365 -0.267388,-0.64693 -0.655558,-0.64693 -0.383831,0 -0.655558,0.29328 -0.655558,0.64693 v 0.004 c 0,0.35366 0.267414,0.64693 0.651245,0.64693 z m 0.0042,-0.20271 c -0.250137,0 -0.426984,-0.2027 -0.426984,-0.44854 0,-0.24583 0.176847,-0.44422 0.422672,-0.44422 0.250137,0 0.426984,0.2027 0.426984,0.44422 v 0.004 c 0,0.24584 -0.172534,0.44423 -0.422672,0.44423 z m 0,0"
       id="path6763"
       inkscape:connector-curvature="0" />
    <path
       style="fill:#000000;fill-opacity:1;stroke:none;stroke-width:0.27602378"
       d="m 85.80601,175.37729 c 0.0217,0.0561 0.06038,0.0906 0.11213,0.0906 h 0.0217 c 0.05607,0 0.09488,-0.0345 0.116443,-0.0906 l 0.280326,-0.81944 0.280353,0.81944 c 0.0172,0.0561 0.05607,0.0906 0.11213,0.0906 h 0.0217 c 0.05175,0 0.09488,-0.0345 0.116443,-0.0906 l 0.370919,-1.0394 c 0.0042,-0.0129 0.0087,-0.0302 0.0087,-0.0474 0,-0.0561 -0.05175,-0.10351 -0.107818,-0.10351 -0.05609,0 -0.09059,0.0345 -0.107844,0.0776 l -0.288952,0.86689 -0.284638,-0.86258 c -0.0172,-0.0517 -0.05607,-0.0863 -0.112157,-0.0863 h -0.01296 c -0.05607,0 -0.09488,0.0345 -0.11213,0.0863 l -0.284639,0.86258 -0.288978,-0.86689 c -0.01296,-0.0431 -0.05607,-0.0776 -0.107818,-0.0776 -0.06038,0 -0.116443,0.0474 -0.116443,0.10782 0,0.0129 0.0042,0.0302 0.01297,0.0431 z m 0,0"
       id="path6759"
       inkscape:connector-curvature="0" />
    <path
       style="fill:#000000;fill-opacity:1;stroke:none;stroke-width:0.27602378"
       d="m 88.177999,175.35142 c 0,0.0604 0.05178,0.10782 0.107845,0.10782 0.06469,0 0.11213,-0.0474 0.11213,-0.10782 v -1.06528 c 0,-0.0604 -0.04744,-0.10783 -0.11213,-0.10783 -0.0345,0 -0.06469,0.009 -0.107845,0.0216 l -0.189759,0.0604 c -0.04744,0.0129 -0.07763,0.0474 -0.07763,0.0949 0,0.0474 0.04744,0.0906 0.09919,0.0906 0.0087,0 0.02593,0 0.03881,-0.004 l 0.129381,-0.0388 z m 0,0"
       id="path6751"
       inkscape:connector-curvature="0" />
    <path
       style="fill:#000000;fill-opacity:1;stroke:none;stroke-width:0.27602378"
       d="m 92.614348,175.35142 c 0,0.0604 0.05175,0.10782 0.11213,0.10782 0.06038,0 0.112157,-0.0474 0.112157,-0.10782 v -0.34072 h 0.276013 l 0.306202,0.39247 c 0.02593,0.0345 0.05607,0.0561 0.107845,0.0561 0.05175,0 0.103505,-0.0388 0.103505,-0.10351 0,-0.0345 -0.01296,-0.0561 -0.0345,-0.0819 l -0.241538,-0.3019 c 0.168222,-0.0561 0.284665,-0.17683 0.284665,-0.37522 v -0.004 c 0,-0.11213 -0.0345,-0.2027 -0.103505,-0.27171 -0.07765,-0.0776 -0.202724,-0.12507 -0.362294,-0.12507 H 92.72648 c -0.06038,0 -0.11213,0.0474 -0.11213,0.11213 z m 0.224287,-0.5348 v -0.42266 h 0.31914 c 0.163883,0 0.258763,0.0733 0.258763,0.21133 0,0.12939 -0.09919,0.21133 -0.258763,0.21133 z m 0,0"
       id="path6747"
       inkscape:connector-curvature="0" />
    <path
       style="fill:#000000;fill-opacity:1;stroke:none;stroke-width:0.27602378"
       d="m 94.552447,175.47218 c 0.38817,0 0.659871,-0.29759 0.659871,-0.65125 0,-0.35365 -0.267388,-0.64693 -0.655558,-0.64693 -0.383831,0 -0.655559,0.29328 -0.655559,0.64693 v 0.004 c 0,0.35366 0.267415,0.64693 0.651246,0.64693 z m 0.0042,-0.20271 c -0.250137,0 -0.426984,-0.2027 -0.426984,-0.44854 0,-0.24583 0.176847,-0.44422 0.422672,-0.44422 0.250137,0 0.426984,0.2027 0.426984,0.44422 v 0.004 c 0,0.24584 -0.172535,0.44423 -0.422672,0.44423 z m 0,0"
       id="path6743"
       inkscape:connector-curvature="0" />
    <path
       style="fill:#000000;fill-opacity:1;stroke:none;stroke-width:0.27602378"
       d="m 95.783315,175.37729 c 0.0217,0.0561 0.06038,0.0906 0.11213,0.0906 h 0.0217 c 0.05607,0 0.09488,-0.0345 0.116443,-0.0906 l 0.280326,-0.81944 0.280353,0.81944 c 0.0172,0.0561 0.05607,0.0906 0.11213,0.0906 h 0.0217 c 0.05175,0 0.09488,-0.0345 0.116443,-0.0906 l 0.37092,-1.0394 c 0.0042,-0.0129 0.0087,-0.0302 0.0087,-0.0474 0,-0.0561 -0.05175,-0.10351 -0.107818,-0.10351 -0.05609,0 -0.09059,0.0345 -0.107844,0.0776 l -0.288951,0.86689 -0.284639,-0.86258 c -0.0172,-0.0517 -0.05607,-0.0863 -0.112157,-0.0863 h -0.01296 c -0.05607,0 -0.09488,0.0345 -0.11213,0.0863 l -0.284639,0.86258 -0.288978,-0.86689 c -0.01296,-0.0431 -0.05606,-0.0776 -0.107817,-0.0776 -0.06038,0 -0.116444,0.0474 -0.116444,0.10782 0,0.0129 0.0042,0.0302 0.01297,0.0431 z m 0,0"
       id="path6739"
       inkscape:connector-curvature="0" />
    <path
       style="fill:#000000;fill-opacity:1;stroke:none;stroke-width:0.27602378"
       d="m 97.913793,175.3471 c 0,0.0647 0.05175,0.10351 0.116443,0.10351 h 0.711623 c 0.05607,0 0.09919,-0.0431 0.09919,-0.0949 0,-0.0561 -0.04313,-0.0992 -0.09919,-0.0992 H 98.23296 l 0.258762,-0.21564 c 0.224261,-0.18114 0.327766,-0.28896 0.327766,-0.48736 0,-0.22427 -0.168195,-0.37522 -0.41402,-0.37522 -0.198384,0 -0.314854,0.0733 -0.418359,0.20271 -0.01297,0.0172 -0.0217,0.0431 -0.0217,0.0647 0,0.0561 0.04313,0.10351 0.09919,0.10351 0.0345,0 0.06038,-0.0172 0.07763,-0.0345 0.07765,-0.0949 0.146659,-0.14233 0.245851,-0.14233 0.116443,0 0.202697,0.0733 0.202697,0.19839 0,0.11214 -0.06038,0.19408 -0.232886,0.33641 l -0.38817,0.32778 c -0.03881,0.0345 -0.05606,0.069 -0.05606,0.11213 z m 0,0"
       id="path6731"
       inkscape:connector-curvature="0" />
    <path
       style="fill:#000000;fill-opacity:1;stroke:none;stroke-width:0.27602378"
       d="m 102.78183,175.35142 c 0,0.0604 0.0517,0.10782 0.11214,0.10782 0.0604,0 0.11215,-0.0474 0.11215,-0.10782 v -0.34072 h 0.27602 l 0.3062,0.39247 c 0.0259,0.0345 0.0561,0.0561 0.10784,0.0561 0.0517,0 0.10351,-0.0388 0.10351,-0.10351 0,-0.0345 -0.013,-0.0561 -0.0345,-0.0819 l -0.24154,-0.3019 c 0.16822,-0.0561 0.28466,-0.17683 0.28466,-0.37522 v -0.004 c 0,-0.11213 -0.0345,-0.2027 -0.1035,-0.27171 -0.0776,-0.0776 -0.20273,-0.12507 -0.3623,-0.12507 h -0.44854 c -0.0604,0 -0.11213,0.0474 -0.11213,0.11213 z m 0.22429,-0.5348 v -0.42266 h 0.31914 c 0.16389,0 0.25876,0.0733 0.25876,0.21133 0,0.12939 -0.0992,0.21133 -0.25876,0.21133 z m 0,0"
       id="path6727"
       inkscape:connector-curvature="0" />
    <path
       style="fill:#000000;fill-opacity:1;stroke:none;stroke-width:0.27602378"
       d="m 104.71993,175.47218 c 0.38817,0 0.65987,-0.29759 0.65987,-0.65125 0,-0.35365 -0.26738,-0.64693 -0.65555,-0.64693 -0.38383,0 -0.65556,0.29328 -0.65556,0.64693 v 0.004 c 0,0.35366 0.26741,0.64693 0.65124,0.64693 z m 0.004,-0.20271 c -0.25013,0 -0.42698,-0.2027 -0.42698,-0.44854 0,-0.24583 0.17685,-0.44422 0.42267,-0.44422 0.25014,0 0.42699,0.2027 0.42699,0.44422 v 0.004 c 0,0.24584 -0.17254,0.44423 -0.42268,0.44423 z m 0,0"
       id="path6723"
       inkscape:connector-curvature="0" />
    <path
       style="fill:#000000;fill-opacity:1;stroke:none;stroke-width:0.27602378"
       d="m 105.9508,175.37729 c 0.0217,0.0561 0.0604,0.0906 0.11213,0.0906 h 0.0217 c 0.0561,0 0.0949,-0.0345 0.11645,-0.0906 l 0.28032,-0.81944 0.28035,0.81944 c 0.0172,0.0561 0.0561,0.0906 0.11213,0.0906 h 0.0217 c 0.0517,0 0.0949,-0.0345 0.11645,-0.0906 l 0.37092,-1.0394 c 0.004,-0.0129 0.009,-0.0302 0.009,-0.0474 0,-0.0561 -0.0517,-0.10351 -0.10782,-0.10351 -0.0561,0 -0.0906,0.0345 -0.10785,0.0776 l -0.28892,0.86689 -0.28464,-0.86258 c -0.0172,-0.0517 -0.0561,-0.0863 -0.11216,-0.0863 h -0.013 c -0.0561,0 -0.0949,0.0345 -0.11213,0.0863 l -0.28464,0.86258 -0.28898,-0.86689 c -0.013,-0.0431 -0.0561,-0.0776 -0.10781,-0.0776 -0.0604,0 -0.11645,0.0474 -0.11645,0.10782 0,0.0129 0.004,0.0302 0.013,0.0431 z m 0,0"
       id="path6719"
       inkscape:connector-curvature="0" />
    <path
       style="fill:#000000;fill-opacity:1;stroke:none;stroke-width:0.27602378"
       d="m 108.56002,175.47218 c 0.26307,0 0.43989,-0.16821 0.43989,-0.39679 v -0.004 c 0,-0.23289 -0.17682,-0.32778 -0.36658,-0.35365 l 0.29327,-0.30622 c 0.0388,-0.0388 0.0647,-0.069 0.0647,-0.12076 0,-0.0561 -0.0474,-0.0949 -0.11213,-0.0949 h -0.64262 c -0.0517,0 -0.0949,0.0431 -0.0949,0.0949 0,0.0517 0.0431,0.0949 0.0949,0.0949 h 0.45717 l -0.29326,0.31484 c -0.0345,0.0345 -0.0475,0.0604 -0.0475,0.0906 0,0.0517 0.0431,0.0949 0.0949,0.0949 h 0.0474 c 0.1725,0 0.28895,0.069 0.28895,0.19408 v 0.004 c 0,0.11214 -0.0949,0.18977 -0.21995,0.18977 -0.11644,0 -0.20701,-0.0431 -0.28467,-0.12076 -0.0172,-0.0172 -0.0431,-0.0302 -0.0733,-0.0302 -0.0561,0 -0.10781,0.0517 -0.10781,0.10782 0,0.0302 0.0172,0.0604 0.0388,0.0776 0.0992,0.0992 0.24153,0.16389 0.42267,0.16389 z m 0,0"
       id="path6711"
       inkscape:connector-curvature="0" />
    <path
       inkscape:connector-curvature="0"
       id="path37367"
       d="m 79.014605,187.26933 c 0,-0.35581 -0.291121,-0.64693 -0.646906,-0.64693 h -6.281711 c -0.355812,0 -0.646933,0.29112 -0.646933,0.64693 v 6.28278 c 0,0.35581 0.291121,0.64693 0.646933,0.64693 h 6.281711 c 0.355785,0 0.646906,-0.29112 0.646906,-0.64693 z m 0,0"
       style="fill:#000000;fill-opacity:1;fill-rule:nonzero;stroke:none;stroke-width:0.27602378" />
    <path
       inkscape:connector-curvature="0"
       id="path37369"
       d="m 89.333355,187.26933 c 0,-0.35581 -0.291121,-0.64693 -0.646959,-0.64693 h -6.281684 c -0.355812,0 -0.646907,0.29112 -0.646907,0.64693 v 6.28278 c 0,0.35581 0.291095,0.64693 0.646907,0.64693 h 6.281684 c 0.355838,0 0.646959,-0.29112 0.646959,-0.64693 z m 0,0"
       style="fill:#000000;fill-opacity:1;fill-rule:nonzero;stroke:none;stroke-width:0.27602378" />
    <path
       inkscape:connector-curvature="0"
       id="path37371"
       d="m 99.387522,187.26933 c 0,-0.35581 -0.291121,-0.64693 -0.646906,-0.64693 h -6.28277 c -0.355838,0 -0.645874,0.29112 -0.645874,0.64693 v 6.28278 c 0,0.35581 0.290036,0.64693 0.645874,0.64693 h 6.28277 c 0.355785,0 0.646906,-0.29112 0.646906,-0.64693 z m 0,0"
       style="fill:#000000;fill-opacity:1;fill-rule:nonzero;stroke:none;stroke-width:0.27602378" />
    <path
       inkscape:connector-curvature="0"
       id="path37373"
       d="m 109.70627,187.26933 c 0,-0.35581 -0.29112,-0.64693 -0.64693,-0.64693 h -6.28171 c -0.35579,0 -0.64691,0.29112 -0.64691,0.64693 v 6.28278 c 0,0.35581 0.29112,0.64693 0.64691,0.64693 h 6.28171 c 0.35581,0 0.64693,-0.29112 0.64693,-0.64693 z m 0,0"
       style="fill:#000000;fill-opacity:1;fill-rule:nonzero;stroke:none;stroke-width:0.27602378" />
    <path
       inkscape:connector-curvature="0"
       id="path35727-1"
       d="m 116.15364,237.1698 v 8.54379"
       style="fill:none;stroke:#000000;stroke-width:0.18383184;stroke-linecap:round;stroke-linejoin:round;stroke-miterlimit:10;stroke-opacity:1" />
    <path
       inkscape:connector-curvature="0"
       id="path33787-7"
       d="m 119.94141,242.53364 c 0,-0.35581 -0.29112,-0.64693 -0.64693,-0.64693 h -6.28168 c -0.35584,0 -0.64694,0.29112 -0.64694,0.64693 v 6.28278 c 0,0.35581 0.2911,0.64693 0.64694,0.64693 h 6.28168 c 0.35581,0 0.64693,-0.29112 0.64693,-0.64693 z m 0,0"
       style="fill:#ff0000;fill-opacity:1;fill-rule:nonzero;stroke:none;stroke-width:0.27602378" />
    <path
       inkscape:connector-curvature="0"
       id="path35729-8"
       d="m 126.20781,237.1698 v 8.54379"
       style="fill:none;stroke:#000000;stroke-width:0.18383184;stroke-linecap:round;stroke-linejoin:round;stroke-miterlimit:10;stroke-opacity:1" />
    <path
       inkscape:connector-curvature="0"
       id="path35731-5"
       d="m 136.26197,237.1698 v 8.54379"
       style="fill:none;stroke:#000000;stroke-width:0.18383184;stroke-linecap:round;stroke-linejoin:round;stroke-miterlimit:10;stroke-opacity:1" />
    <path
       inkscape:connector-curvature="0"
       id="path35733-2"
       d="m 146.58072,237.1698 v 8.54379"
       style="fill:none;stroke:#000000;stroke-width:0.18383184;stroke-linecap:round;stroke-linejoin:round;stroke-miterlimit:10;stroke-opacity:1" />
    <path
       inkscape:connector-curvature="0"
       id="path35735-3"
       d="m 156.63489,237.1698 v 8.54379"
       style="fill:none;stroke:#000000;stroke-width:0.18383184;stroke-linecap:round;stroke-linejoin:round;stroke-miterlimit:10;stroke-opacity:1" />
    <path
       inkscape:connector-curvature="0"
       id="path35737-9"
       d="m 166.95364,237.1698 v 8.54379"
       style="fill:none;stroke:#000000;stroke-width:0.18383184;stroke-linecap:round;stroke-linejoin:round;stroke-miterlimit:10;stroke-opacity:1" />
    <path
       inkscape:connector-curvature="0"
       id="path35739-5"
       d="m 177.0078,237.1698 v 8.54379"
       style="fill:none;stroke:#000000;stroke-width:0.18383184;stroke-linecap:round;stroke-linejoin:round;stroke-miterlimit:10;stroke-opacity:1" />
    <path
       inkscape:connector-curvature="0"
       id="path35741-2"
       d="m 187.32655,237.1698 v 8.54379"
       style="fill:none;stroke:#000000;stroke-width:0.18383184;stroke-linecap:round;stroke-linejoin:round;stroke-miterlimit:10;stroke-opacity:1" />
    <path
       inkscape:connector-curvature="0"
       id="path36677-4"
       d="m 129.99558,242.53364 c 0,-0.35581 -0.29112,-0.64693 -0.64693,-0.64693 h -6.28169 c -0.35581,0 -0.64693,0.29112 -0.64693,0.64693 v 6.28278 c 0,0.35581 0.29112,0.64693 0.64693,0.64693 h 6.28169 c 0.35581,0 0.64693,-0.29112 0.64693,-0.64693 z m 0,0"
       style="fill:#000000;fill-opacity:1;fill-rule:nonzero;stroke:none;stroke-width:0.27602378" />
    <path
       inkscape:connector-curvature="0"
       id="path36679-4"
       d="m 140.04975,242.53364 c 0,-0.35581 -0.29112,-0.64693 -0.64694,-0.64693 h -6.28171 c -0.35578,0 -0.6469,0.29112 -0.6469,0.64693 v 6.28278 c 0,0.35581 0.29112,0.64693 0.6469,0.64693 h 6.28171 c 0.35582,0 0.64694,-0.29112 0.64694,-0.64693 z m 0,0"
       style="fill:#000000;fill-opacity:1;fill-rule:nonzero;stroke:none;stroke-width:0.27602378" />
    <path
       inkscape:connector-curvature="0"
       id="path36681-1"
       d="m 150.3685,242.53364 c 0,-0.35581 -0.29001,-0.64693 -0.64585,-0.64693 h -6.28277 c -0.35581,0 -0.64693,0.29112 -0.64693,0.64693 v 6.28278 c 0,0.35581 0.29112,0.64693 0.64693,0.64693 h 6.28277 c 0.35584,0 0.64585,-0.29112 0.64585,-0.64693 z m 0,0"
       style="fill:#000000;fill-opacity:1;fill-rule:nonzero;stroke:none;stroke-width:0.27602378" />
    <path
       inkscape:connector-curvature="0"
       id="path36683-7"
       d="m 160.42266,242.53364 c 0,-0.35581 -0.29112,-0.64693 -0.6469,-0.64693 h -6.28171 c -0.35582,0 -0.64694,0.29112 -0.64694,0.64693 v 6.28278 c 0,0.35581 0.29112,0.64693 0.64694,0.64693 h 6.28171 c 0.35578,0 0.6469,-0.29112 0.6469,-0.64693 z m 0,0"
       style="fill:#ff0000;fill-opacity:1;fill-rule:nonzero;stroke:none;stroke-width:0.27602378" />
    <path
       inkscape:connector-curvature="0"
       id="path36685-8"
       d="m 170.74141,242.53364 c 0,-0.35581 -0.29112,-0.64693 -0.64696,-0.64693 h -6.28168 c -0.35581,0 -0.64691,0.29112 -0.64691,0.64693 v 6.28278 c 0,0.35581 0.2911,0.64693 0.64691,0.64693 h 6.28168 c 0.35584,0 0.64696,-0.29112 0.64696,-0.64693 z m 0,0"
       style="fill:#000000;fill-opacity:1;fill-rule:nonzero;stroke:none;stroke-width:0.27602378" />
    <path
       inkscape:connector-curvature="0"
       id="path36687-9"
       d="m 180.79558,242.53364 c 0,-0.35581 -0.29112,-0.64693 -0.64691,-0.64693 h -6.28277 c -0.35584,0 -0.64587,0.29112 -0.64587,0.64693 v 6.28278 c 0,0.35581 0.29003,0.64693 0.64587,0.64693 h 6.28277 c 0.35579,0 0.64691,-0.29112 0.64691,-0.64693 z m 0,0"
       style="fill:#000000;fill-opacity:1;fill-rule:nonzero;stroke:none;stroke-width:0.27602378" />
    <path
       inkscape:connector-curvature="0"
       id="path36689-4"
       d="m 191.11432,242.53364 c 0,-0.35581 -0.29112,-0.64693 -0.64693,-0.64693 h -6.2817 c -0.35579,0 -0.64691,0.29112 -0.64691,0.64693 v 6.28278 c 0,0.35581 0.29112,0.64693 0.64691,0.64693 h 6.2817 c 0.35581,0 0.64693,-0.29112 0.64693,-0.64693 z m 0,0"
       style="fill:#000000;fill-opacity:1;fill-rule:nonzero;stroke:none;stroke-width:0.27602378" />
    <text
       xml:space="preserve"
       style="font-style:normal;font-weight:normal;font-size:10.58333302px;line-height:1.25;font-family:sans-serif;letter-spacing:0px;word-spacing:0px;fill:#000000;fill-opacity:1;stroke:none;stroke-width:0.26458332"
       x="114.64974"
       y="199.67114"
       id="text4659"><tspan
         sodipodi:role="line"
         id="tspan4657"
         x="114.64974"
         y="209.03491"
         style="stroke-width:0.26458332" /></text>
    <text
       xml:space="preserve"
       style="font-style:normal;font-weight:normal;font-size:10.58333302px;line-height:1.25;font-family:sans-serif;letter-spacing:0px;word-spacing:0px;fill:#000000;fill-opacity:1;stroke:none;stroke-width:0.26458332"
       x="117.29558"
       y="199.67114"
       id="text4663"><tspan
         sodipodi:role="line"
         id="tspan4661"
         x="117.29558"
         y="209.03491"
         style="stroke-width:0.26458332" /></text>
    <text
       xml:space="preserve"
       style="font-style:normal;font-variant:normal;font-weight:normal;font-stretch:normal;font-size:2.82222223px;line-height:1.25;font-family:sans-serif;-inkscape-font-specification:'sans-serif, Normal';font-variant-ligatures:normal;font-variant-caps:normal;font-variant-numeric:normal;font-feature-settings:normal;text-align:start;letter-spacing:0px;word-spacing:0px;writing-mode:lr-tb;text-anchor:start;fill:#000000;fill-opacity:1;stroke:none;stroke-width:0.26458332"
       x="114.64974"
       y="198.34822"
       id="text4667"><tspan
         sodipodi:role="line"
         id="tspan4665"
         x="114.64974"
         y="200.84523"
         style="stroke-width:0.26458332" /></text>
    <text
       xml:space="preserve"
       style="font-style:normal;font-variant:normal;font-weight:normal;font-stretch:normal;font-size:2.82222223px;line-height:1.25;font-family:sans-serif;-inkscape-font-specification:'sans-serif, Normal';font-variant-ligatures:normal;font-variant-caps:normal;font-variant-numeric:normal;font-feature-settings:normal;text-align:start;letter-spacing:0px;word-spacing:0px;writing-mode:lr-tb;text-anchor:start;fill:#000000;fill-opacity:1;stroke:none;stroke-width:0.26458332"
       x="114.64974"
       y="200.99405"
       id="text4671"><tspan
         sodipodi:role="line"
         id="tspan4669"
         x="114.64974"
         y="203.49106"
         style="stroke-width:0.26458332" /></text>
    <text
       xml:space="preserve"
       style="font-style:normal;font-variant:normal;font-weight:normal;font-stretch:normal;font-size:2.11666656px;line-height:1.25;font-family:sans-serif;-inkscape-font-specification:'sans-serif, Normal';font-variant-ligatures:normal;font-variant-caps:normal;font-variant-numeric:normal;font-feature-settings:normal;text-align:start;letter-spacing:0px;word-spacing:0px;writing-mode:lr-tb;text-anchor:start;fill:#000000;fill-opacity:1;stroke:none;stroke-width:0.26458332"
       x="114.64974"
       y="199.67114"
       id="text4675"><tspan
         sodipodi:role="line"
         id="tspan4673"
         x="114.64974"
         y="201.5439"
         style="stroke-width:0.26458332" /></text>
    <path
       d="m 108.98168,256.35727 v 1.43277 h 0.7016 q 0.38947,0 0.60216,-0.18644 0.21269,-0.18643 0.21269,-0.53122 0,-0.34223 -0.21269,-0.52867 -0.21269,-0.18644 -0.60216,-0.18644 z m -0.55797,-0.42396 h 1.25957 q 0.69332,0 1.04688,0.29115 0.35633,0.2886 0.35633,0.84792 0,0.56443 -0.35633,0.85302 -0.35356,0.2886 -1.04688,0.2886 h -0.7016 v 1.53239 h -0.55797 z"
       style="font-style:normal;font-weight:normal;font-size:5.43959379px;line-height:1.25;font-family:sans-serif;letter-spacing:0px;word-spacing:0px;display:inline;fill:#000000;fill-opacity:1;stroke:none;stroke-width:0.13598984"
       id="path3737"
       inkscape:connector-curvature="0" />
    <path
       d="m 114.64975,259.20239 v -1.02414 h -0.91154 v -0.42396 h 1.46398 v 1.63709 q -0.32318,0.21198 -0.71265,0.3218 -0.38947,0.10726 -0.83143,0.10726 -0.96678,0 -1.5137,-0.521 -0.54415,-0.52356 -0.54415,-1.45576 0,-0.93476 0.54415,-1.45576 0.54692,-0.52357 1.5137,-0.52357 0.40328,0 0.76513,0.0919 0.36462,0.0919 0.67122,0.27072 v 0.5491 q -0.30936,-0.24263 -0.6574,-0.36522 -0.34804,-0.12259 -0.73199,-0.12259 -0.75685,0 -1.13804,0.39076 -0.37842,0.39075 -0.37842,1.16461 0,0.77129 0.37842,1.16205 0.38119,0.39076 1.13804,0.39076 0.29556,0 0.52758,-0.046 0.23203,-0.0486 0.4171,-0.14813 z"
       style="font-style:normal;font-weight:normal;font-size:5.43959379px;line-height:1.25;font-family:sans-serif;letter-spacing:0px;word-spacing:0px;display:inline;fill:#000000;fill-opacity:1;stroke:none;stroke-width:0.13598984"
       id="path3739"
       inkscape:connector-curvature="0" />
    <path
       d="m 116.20211,256.88594 h 0.50825 v 2.86045 h -0.50825 z m 0,-1.11353 h 0.50825 v 0.59507 h -0.50825 z"
       style="font-style:normal;font-weight:normal;font-size:5.43959379px;line-height:1.25;font-family:sans-serif;letter-spacing:0px;word-spacing:0px;display:inline;fill:#000000;fill-opacity:1;stroke:none;stroke-width:0.13598984"
       id="path3741"
       inkscape:connector-curvature="0" />
    <g
       aria-label="PG-SEQ-3 a 16 step sequencer"
       transform="scale(0.81532845,1.2264996)"
       style="font-style:normal;font-weight:normal;font-size:3.66321492px;line-height:1.25;font-family:sans-serif;letter-spacing:0px;word-spacing:0px;fill:#000000;fill-opacity:1;stroke:none;stroke-width:0.34342638"
       id="text4072">
      <path
         d="m 160.30281,153.56112 v 1.00344 h 0.45432 q 0.25221,0 0.38993,-0.13057 0.13773,-0.13057 0.13773,-0.37204 0,-0.23969 -0.13773,-0.37026 -0.13772,-0.13057 -0.38993,-0.13057 z m -0.36132,-0.29693 h 0.81564 q 0.44896,0 0.67791,0.20391 0.23074,0.20212 0.23074,0.59385 0,0.39529 -0.23074,0.59741 -0.22895,0.20212 -0.67791,0.20212 h -0.45432 v 1.07321 h -0.36132 z"
         style="stroke-width:0.34342638"
         id="path4074"
         inkscape:connector-curvature="0" />
      <path
         d="m 163.97318,155.5537 v -0.71726 h -0.59027 v -0.29692 h 0.948 v 1.14655 q -0.20927,0.14846 -0.46148,0.22537 -0.2522,0.0751 -0.53839,0.0751 -0.62604,0 -0.98019,-0.36489 -0.35237,-0.36668 -0.35237,-1.01954 0,-0.65466 0.35237,-1.01955 0.35415,-0.36668 0.98019,-0.36668 0.26115,0 0.49547,0.0644 0.2361,0.0644 0.43465,0.1896 v 0.38457 q -0.20034,-0.16993 -0.42571,-0.25578 -0.22537,-0.0859 -0.474,-0.0859 -0.4901,0 -0.73694,0.27367 -0.24505,0.27367 -0.24505,0.81564 0,0.54018 0.24505,0.81385 0.24684,0.27366 0.73694,0.27366 0.19139,0 0.34164,-0.0322 0.15025,-0.034 0.27009,-0.10375 z"
         style="stroke-width:0.34342638"
         id="path4076"
         inkscape:connector-curvature="0" />
      <path
         d="m 164.81207,154.78457 h 0.9641 v 0.29335 h -0.9641 z"
         style="stroke-width:0.34342638"
         id="path4078"
         inkscape:connector-curvature="0" />
      <path
         d="m 167.91722,153.35184 v 0.35237 q -0.2057,-0.0984 -0.38815,-0.14667 -0.18244,-0.0483 -0.35237,-0.0483 -0.29513,0 -0.45611,0.11448 -0.15919,0.11447 -0.15919,0.32554 0,0.17708 0.10553,0.2683 0.10732,0.0894 0.40424,0.14488 l 0.21822,0.0447 q 0.40424,0.0769 0.59563,0.27188 0.19318,0.19318 0.19318,0.51872 0,0.38814 -0.26115,0.58847 -0.25936,0.20033 -0.76198,0.20033 -0.1896,0 -0.40424,-0.0429 -0.21285,-0.0429 -0.4418,-0.127 v -0.37205 q 0.22,0.12342 0.43107,0.18603 0.21106,0.0626 0.41497,0.0626 0.30944,0 0.47758,-0.12163 0.16814,-0.12163 0.16814,-0.347 0,-0.19676 -0.12164,-0.30766 -0.11984,-0.11089 -0.39529,-0.16634 l -0.22001,-0.0429 q -0.40424,-0.0805 -0.5849,-0.25221 -0.18066,-0.17171 -0.18066,-0.47757 0,-0.35416 0.24863,-0.55807 0.25042,-0.20391 0.68864,-0.20391 0.18781,0 0.38278,0.034 0.19497,0.034 0.39888,0.10196 z"
         style="stroke-width:0.34342638"
         id="path4080"
         inkscape:connector-curvature="0" />
      <path
         d="m 168.64163,153.26419 h 1.68851 v 0.30408 h -1.3272 v 0.7906 h 1.27175 v 0.30407 h -1.27175 v 0.96768 h 1.3594 v 0.30407 h -1.72071 z"
         style="stroke-width:0.34342638"
         id="path4082"
         inkscape:connector-curvature="0" />
      <path
         d="m 172.0437,153.50924 q -0.39351,0 -0.62604,0.29335 -0.23074,0.29334 -0.23074,0.79954 0,0.5044 0.23074,0.79775 0.23253,0.29334 0.62604,0.29334 0.39351,0 0.62246,-0.29334 0.23074,-0.29335 0.23074,-0.79775 0,-0.5062 -0.23074,-0.79954 -0.22895,-0.29335 -0.62246,-0.29335 z m 0.50619,2.37716 0.47579,0.5205 h -0.43643 l -0.3953,-0.42749 q -0.059,0.004 -0.0912,0.005 -0.0304,0.002 -0.059,0.002 -0.56344,0 -0.9015,-0.37562 -0.33627,-0.37741 -0.33627,-1.00881 0,-0.6332 0.33627,-1.00882 0.33806,-0.37741 0.9015,-0.37741 0.56164,0 0.89792,0.37741 0.33627,0.37562 0.33627,1.00882 0,0.46505 -0.18781,0.79596 -0.18603,0.3309 -0.54019,0.48831 z"
         style="stroke-width:0.34342638"
         id="path4084"
         inkscape:connector-curvature="0" />
      <path
         d="m 173.76262,154.78457 h 0.9641 v 0.29335 h -0.9641 z"
         style="stroke-width:0.34342638"
         id="path4086"
         inkscape:connector-curvature="0" />
      <path
         d="m 176.39377,154.49481 q 0.25935,0.0554 0.40424,0.23074 0.14667,0.17529 0.14667,0.43286 0,0.39529 -0.27188,0.61172 -0.27188,0.21643 -0.77271,0.21643 -0.16814,0 -0.347,-0.034 -0.17708,-0.0322 -0.36668,-0.0984 v -0.34879 q 0.15025,0.0876 0.32911,0.13236 0.17887,0.0447 0.37384,0.0447 0.33985,0 0.51693,-0.13415 0.17886,-0.13415 0.17886,-0.38993 0,-0.23611 -0.16634,-0.36847 -0.16456,-0.13415 -0.45969,-0.13415 h -0.31123 v -0.29692 h 0.32554 q 0.26651,0 0.40782,-0.10554 0.1413,-0.10732 0.1413,-0.30765 0,-0.2057 -0.14667,-0.31481 -0.14488,-0.11089 -0.41676,-0.11089 -0.14846,0 -0.31839,0.0322 -0.16992,0.0322 -0.37383,0.10017 v -0.32196 q 0.2057,-0.0572 0.38456,-0.0859 0.18066,-0.0286 0.33985,-0.0286 0.4114,0 0.65108,0.18781 0.23969,0.18602 0.23969,0.50441 0,0.2218 -0.127,0.37562 -0.127,0.15204 -0.36131,0.21107 z"
         style="stroke-width:0.34342638"
         id="path4088"
         inkscape:connector-curvature="0" />
      <path
         d="m 179.66168,154.92767 q -0.39887,0 -0.5527,0.0912 -0.15383,0.0912 -0.15383,0.31123 0,0.17529 0.11448,0.27903 0.11626,0.10196 0.31481,0.10196 0.27366,0 0.43822,-0.19318 0.16635,-0.19497 0.16635,-0.51693 v -0.0733 z m 0.65645,-0.13594 v 1.14296 h -0.32912 v -0.30407 q -0.11269,0.18244 -0.28082,0.27009 -0.16814,0.0858 -0.4114,0.0858 -0.30765,0 -0.4901,-0.17171 -0.18065,-0.1735 -0.18065,-0.46327 0,-0.33806 0.22537,-0.50977 0.22716,-0.17171 0.67612,-0.17171 h 0.46148 v -0.0322 q 0,-0.22716 -0.15025,-0.35058 -0.14846,-0.12521 -0.41855,-0.12521 -0.17171,0 -0.33448,0.0411 -0.16277,0.0411 -0.31302,0.12342 v -0.30408 q 0.18065,-0.0697 0.35058,-0.10374 0.16992,-0.0358 0.3309,-0.0358 0.43465,0 0.6493,0.22537 0.21464,0.22537 0.21464,0.68328 z"
         style="stroke-width:0.34342638"
         id="path4090"
         inkscape:connector-curvature="0" />
      <path
         d="m 182.27315,155.63062 h 0.59027 v -2.03731 l -0.64214,0.12879 v -0.32912 l 0.63856,-0.12879 h 0.36131 v 2.36643 h 0.59027 v 0.30407 h -1.53827 z"
         style="stroke-width:0.34342638"
         id="path4092"
         inkscape:connector-curvature="0" />
      <path
         d="m 185.36041,154.45545 q -0.24326,0 -0.38635,0.16635 -0.14131,0.16635 -0.14131,0.45612 0,0.28797 0.14131,0.45611 0.14309,0.16635 0.38635,0.16635 0.24326,0 0.38457,-0.16635 0.14309,-0.16814 0.14309,-0.45611 0,-0.28977 -0.14309,-0.45612 -0.14131,-0.16635 -0.38457,-0.16635 z m 0.71726,-1.13223 v 0.32912 q -0.13594,-0.0644 -0.27545,-0.0984 -0.13773,-0.034 -0.27367,-0.034 -0.35774,0 -0.54734,0.24147 -0.18781,0.24147 -0.21464,0.72978 0.10553,-0.15562 0.26473,-0.2379 0.15919,-0.0841 0.35058,-0.0841 0.40245,0 0.63498,0.24505 0.23432,0.24326 0.23432,0.6636 0,0.41139 -0.24326,0.66002 -0.24327,0.24862 -0.64751,0.24862 -0.46326,0 -0.70831,-0.35415 -0.24505,-0.35595 -0.24505,-1.03028 0,-0.6332 0.3005,-1.00882 0.30049,-0.37741 0.80669,-0.37741 0.13594,0 0.27367,0.0268 0.13951,0.0268 0.28976,0.0805 z"
         style="stroke-width:0.34342638"
         id="path4094"
         inkscape:connector-curvature="0" />
      <path
         d="m 189.27226,153.9904 v 0.31123 q -0.13952,-0.0716 -0.28977,-0.10732 -0.15025,-0.0358 -0.31123,-0.0358 -0.24505,0 -0.36847,0.0751 -0.12163,0.0751 -0.12163,0.22537 0,0.11448 0.0876,0.18066 0.0876,0.0644 0.35237,0.12342 l 0.11268,0.025 q 0.35058,0.0751 0.49726,0.21285 0.14846,0.13594 0.14846,0.38099 0,0.27903 -0.2218,0.4418 -0.22001,0.16277 -0.60636,0.16277 -0.16098,0 -0.33627,-0.0322 -0.17351,-0.0304 -0.36668,-0.093 v -0.33985 q 0.18244,0.0948 0.35952,0.14309 0.17708,0.0465 0.35058,0.0465 0.23253,0 0.35774,-0.0787 0.12521,-0.0805 0.12521,-0.22538 0,-0.13415 -0.0912,-0.2057 -0.0894,-0.0715 -0.3953,-0.13772 l -0.11447,-0.0268 q -0.30586,-0.0644 -0.4418,-0.19676 -0.13594,-0.13415 -0.13594,-0.36668 0,-0.28261 0.20033,-0.43644 0.20033,-0.15382 0.5688,-0.15382 0.18244,0 0.34342,0.0268 0.16099,0.0268 0.29693,0.0805 z"
         style="stroke-width:0.34342638"
         id="path4096"
         inkscape:connector-curvature="0" />
      <path
         d="m 190.23099,153.36257 v 0.5688 h 0.67791 v 0.25578 h -0.67791 v 1.08752 q 0,0.24505 0.0662,0.31481 0.068,0.0698 0.27367,0.0698 h 0.33806 v 0.27545 h -0.33806 q -0.38099,0 -0.52588,-0.1413 -0.14488,-0.1431 -0.14488,-0.51872 v -1.08752 h -0.24147 v -0.25578 h 0.24147 v -0.5688 z"
         style="stroke-width:0.34342638"
         id="path4098"
         inkscape:connector-curvature="0" />
      <path
         d="m 193.0571,154.85075 v 0.16098 h -1.51322 q 0.0215,0.33985 0.20391,0.51872 0.18423,0.17708 0.51156,0.17708 0.1896,0 0.36668,-0.0465 0.17887,-0.0465 0.35416,-0.13951 v 0.31123 q -0.17708,0.0751 -0.3631,0.11447 -0.18603,0.0393 -0.37742,0.0393 -0.47936,0 -0.76018,-0.27903 -0.27904,-0.27903 -0.27904,-0.75482 0,-0.49189 0.26473,-0.77987 0.26651,-0.28976 0.71726,-0.28976 0.40424,0 0.63856,0.26114 0.2361,0.25936 0.2361,0.70653 z m -0.32912,-0.0966 q -0.004,-0.27009 -0.15203,-0.43107 -0.14668,-0.16098 -0.38994,-0.16098 -0.27545,0 -0.4418,0.15562 -0.16456,0.15561 -0.1896,0.43822 z"
         style="stroke-width:0.34342638"
         id="path4100"
         inkscape:connector-curvature="0" />
      <path
         d="m 193.91567,155.63419 v 1.06248 h -0.33091 v -2.7653 h 0.33091 v 0.30408 q 0.10374,-0.17887 0.26114,-0.26473 0.1592,-0.0876 0.3792,-0.0876 0.3649,0 0.59206,0.28976 0.22895,0.28977 0.22895,0.76198 0,0.47221 -0.22895,0.76198 -0.22716,0.28976 -0.59206,0.28976 -0.22,0 -0.3792,-0.0858 -0.1574,-0.0876 -0.26114,-0.26652 z m 1.11971,-0.69937 q 0,-0.3631 -0.15025,-0.5688 -0.14846,-0.20749 -0.40961,-0.20749 -0.26114,0 -0.41139,0.20749 -0.14846,0.2057 -0.14846,0.5688 0,0.3631 0.14846,0.57059 0.15025,0.2057 0.41139,0.2057 0.26115,0 0.40961,-0.2057 0.15025,-0.20749 0.15025,-0.57059 z"
         style="stroke-width:0.34342638"
         id="path4102"
         inkscape:connector-curvature="0" />
      <path
         d="m 198.3659,153.9904 v 0.31123 q -0.13952,-0.0716 -0.28977,-0.10732 -0.15024,-0.0358 -0.31123,-0.0358 -0.24504,0 -0.36846,0.0751 -0.12163,0.0751 -0.12163,0.22537 0,0.11448 0.0876,0.18066 0.0876,0.0644 0.35237,0.12342 l 0.11269,0.025 q 0.35058,0.0751 0.49725,0.21285 0.14846,0.13594 0.14846,0.38099 0,0.27903 -0.2218,0.4418 -0.22,0.16277 -0.60636,0.16277 -0.16098,0 -0.33627,-0.0322 -0.1735,-0.0304 -0.36668,-0.093 v -0.33985 q 0.18245,0.0948 0.35953,0.14309 0.17708,0.0465 0.35058,0.0465 0.23253,0 0.35773,-0.0787 0.12521,-0.0805 0.12521,-0.22538 0,-0.13415 -0.0912,-0.2057 -0.0894,-0.0715 -0.3953,-0.13772 l -0.11448,-0.0268 q -0.30586,-0.0644 -0.4418,-0.19676 -0.13594,-0.13415 -0.13594,-0.36668 0,-0.28261 0.20033,-0.43644 0.20034,-0.15382 0.5688,-0.15382 0.18245,0 0.34343,0.0268 0.16098,0.0268 0.29692,0.0805 z"
         style="stroke-width:0.34342638"
         id="path4104"
         inkscape:connector-curvature="0" />
      <path
         d="m 200.71265,154.85075 v 0.16098 h -1.51323 q 0.0215,0.33985 0.20391,0.51872 0.18424,0.17708 0.51157,0.17708 0.1896,0 0.36668,-0.0465 0.17886,-0.0465 0.35415,-0.13951 v 0.31123 q -0.17708,0.0751 -0.3631,0.11447 -0.18602,0.0393 -0.37741,0.0393 -0.47937,0 -0.76019,-0.27903 -0.27903,-0.27903 -0.27903,-0.75482 0,-0.49189 0.26472,-0.77987 0.26652,-0.28976 0.71726,-0.28976 0.40424,0 0.63856,0.26114 0.23611,0.25936 0.23611,0.70653 z m -0.32912,-0.0966 q -0.004,-0.27009 -0.15204,-0.43107 -0.14667,-0.16098 -0.38993,-0.16098 -0.27546,0 -0.4418,0.15562 -0.16456,0.15561 -0.1896,0.43822 z"
         style="stroke-width:0.34342638"
         id="path4106"
         inkscape:connector-curvature="0" />
      <path
         d="m 201.44958,154.93482 q 0,0.3631 0.14846,0.57059 0.15025,0.2057 0.4114,0.2057 0.26115,0 0.41139,-0.2057 0.15025,-0.20749 0.15025,-0.57059 0,-0.3631 -0.15025,-0.5688 -0.15024,-0.20749 -0.41139,-0.20749 -0.26115,0 -0.4114,0.20749 -0.14846,0.2057 -0.14846,0.5688 z m 1.1215,0.69937 q -0.10374,0.17887 -0.26293,0.26652 -0.15741,0.0858 -0.3792,0.0858 -0.3631,0 -0.59206,-0.28976 -0.22716,-0.28977 -0.22716,-0.76198 0,-0.47221 0.22716,-0.76198 0.22896,-0.28976 0.59206,-0.28976 0.22179,0 0.3792,0.0876 0.15919,0.0859 0.26293,0.26473 v -0.30408 h 0.32912 v 2.7653 h -0.32912 z"
         style="stroke-width:0.34342638"
         id="path4108"
         inkscape:connector-curvature="0" />
      <path
         d="m 203.54413,155.1441 v -1.21273 h 0.32911 v 1.20021 q 0,0.2844 0.1109,0.42749 0.1109,0.14131 0.33269,0.14131 0.26652,0 0.42034,-0.16993 0.15562,-0.16992 0.15562,-0.46327 v -1.13581 h 0.32912 v 2.00332 h -0.32912 v -0.30765 q -0.11984,0.18244 -0.27903,0.27188 -0.15741,0.0876 -0.36668,0.0876 -0.34522,0 -0.52409,-0.21464 -0.17886,-0.21464 -0.17886,-0.62782 z m 0.82815,-1.26102 z"
         style="stroke-width:0.34342638"
         id="path4110"
         inkscape:connector-curvature="0" />
      <path
         d="m 207.61695,154.85075 v 0.16098 h -1.51322 q 0.0215,0.33985 0.2039,0.51872 0.18424,0.17708 0.51157,0.17708 0.1896,0 0.36668,-0.0465 0.17886,-0.0465 0.35415,-0.13951 v 0.31123 q -0.17707,0.0751 -0.3631,0.11447 -0.18602,0.0393 -0.37741,0.0393 -0.47936,0 -0.76019,-0.27903 -0.27903,-0.27903 -0.27903,-0.75482 0,-0.49189 0.26472,-0.77987 0.26652,-0.28976 0.71726,-0.28976 0.40425,0 0.63856,0.26114 0.23611,0.25936 0.23611,0.70653 z m -0.32912,-0.0966 q -0.004,-0.27009 -0.15204,-0.43107 -0.14667,-0.16098 -0.38993,-0.16098 -0.27546,0 -0.4418,0.15562 -0.16456,0.15561 -0.1896,0.43822 z"
         style="stroke-width:0.34342638"
         id="path4112"
         inkscape:connector-curvature="0" />
      <path
         d="m 209.82239,154.72555 v 1.20914 h -0.32912 v -1.19841 q 0,-0.2844 -0.1109,-0.42571 -0.1109,-0.1413 -0.33269,-0.1413 -0.26651,0 -0.42034,0.16992 -0.15383,0.16993 -0.15383,0.46327 v 1.13223 h -0.3309 v -2.00332 h 0.3309 v 0.31123 q 0.11806,-0.18065 0.27725,-0.27009 0.16098,-0.0894 0.37025,-0.0894 0.34522,0 0.5223,0.21464 0.17708,0.21285 0.17708,0.62783 z"
         style="stroke-width:0.34342638"
         id="path4114"
         inkscape:connector-curvature="0" />
      <path
         d="m 211.92409,154.00828 v 0.30766 q -0.13952,-0.0769 -0.28083,-0.11448 -0.13951,-0.0393 -0.28261,-0.0393 -0.32017,0 -0.49725,0.20391 -0.17708,0.20212 -0.17708,0.5688 0,0.36668 0.17708,0.57059 0.17708,0.20212 0.49725,0.20212 0.1431,0 0.28261,-0.0376 0.14131,-0.0394 0.28083,-0.11627 v 0.30408 q -0.13773,0.0644 -0.28619,0.0966 -0.14667,0.0322 -0.31302,0.0322 -0.45254,0 -0.71905,-0.2844 -0.26651,-0.2844 -0.26651,-0.76734 0,-0.4901 0.2683,-0.77092 0.27009,-0.28082 0.73872,-0.28082 0.15204,0 0.29692,0.0322 0.14489,0.0304 0.28083,0.093 z"
         style="stroke-width:0.34342638"
         id="path4116"
         inkscape:connector-curvature="0" />
      <path
         d="m 214.2136,154.85075 v 0.16098 h -1.51323 q 0.0215,0.33985 0.20391,0.51872 0.18424,0.17708 0.51157,0.17708 0.1896,0 0.36668,-0.0465 0.17886,-0.0465 0.35415,-0.13951 v 0.31123 q -0.17708,0.0751 -0.3631,0.11447 -0.18602,0.0393 -0.37741,0.0393 -0.47937,0 -0.76019,-0.27903 -0.27903,-0.27903 -0.27903,-0.75482 0,-0.49189 0.26472,-0.77987 0.26652,-0.28976 0.71726,-0.28976 0.40424,0 0.63856,0.26114 0.23611,0.25936 0.23611,0.70653 z m -0.32912,-0.0966 q -0.004,-0.27009 -0.15204,-0.43107 -0.14667,-0.16098 -0.38993,-0.16098 -0.27546,0 -0.4418,0.15562 -0.16456,0.15561 -0.1896,0.43822 z"
         style="stroke-width:0.34342638"
         id="path4118"
         inkscape:connector-curvature="0" />
      <path
         d="m 215.91463,154.23902 q -0.0554,-0.0322 -0.12163,-0.0465 -0.0644,-0.0161 -0.14309,-0.0161 -0.27904,0 -0.42929,0.18245 -0.14846,0.18065 -0.14846,0.5205 v 1.05532 h -0.3309 v -2.00332 h 0.3309 v 0.31123 q 0.10375,-0.18244 0.27009,-0.27009 0.16635,-0.0894 0.40424,-0.0894 0.034,0 0.0751,0.005 0.0411,0.004 0.0912,0.0125 z"
         style="stroke-width:0.34342638"
         id="path4120"
         inkscape:connector-curvature="0" />
    </g>
  </g>
</svg>
